<svg width="916" height="235" viewBox="0 0 916 235" fill="none" xmlns="http://www.w3.org/2000/svg">
<path d="M194.657 198.23C198.111 198.23 200.632 198.907 202.219 200.262C203.818 201.605 204.618 203.534 204.618 206.049C204.618 207.184 204.428 208.264 204.05 209.29C203.684 210.303 203.086 211.2 202.256 211.981C201.426 212.75 200.333 213.361 198.978 213.812C197.635 214.252 195.987 214.471 194.034 214.471H190.775V225H187.662V198.23H194.657ZM194.364 200.885H190.775V211.798H193.686C195.395 211.798 196.817 211.615 197.953 211.249C199.1 210.883 199.961 210.291 200.534 209.473C201.108 208.643 201.395 207.544 201.395 206.177C201.395 204.395 200.827 203.07 199.692 202.203C198.557 201.324 196.781 200.885 194.364 200.885ZM217.49 204.565C219.199 204.565 220.664 204.944 221.885 205.701C223.105 206.458 224.039 207.52 224.686 208.887C225.333 210.242 225.656 211.829 225.656 213.647V215.533H211.795C211.832 217.889 212.418 219.684 213.553 220.917C214.688 222.15 216.288 222.766 218.351 222.766C219.62 222.766 220.743 222.65 221.72 222.418C222.696 222.186 223.709 221.844 224.759 221.393V224.066C223.746 224.518 222.739 224.847 221.738 225.055C220.749 225.262 219.577 225.366 218.222 225.366C216.294 225.366 214.609 224.976 213.169 224.194C211.74 223.401 210.63 222.241 209.836 220.715C209.043 219.189 208.646 217.322 208.646 215.112C208.646 212.952 209.006 211.084 209.726 209.509C210.459 207.922 211.484 206.702 212.802 205.847C214.133 204.993 215.696 204.565 217.49 204.565ZM217.453 207.056C215.83 207.056 214.536 207.587 213.572 208.649C212.607 209.711 212.033 211.194 211.85 213.098H222.47C222.458 211.902 222.269 210.852 221.903 209.949C221.549 209.033 221.006 208.325 220.273 207.825C219.541 207.312 218.601 207.056 217.453 207.056ZM239.939 204.565C240.342 204.565 240.763 204.59 241.202 204.639C241.642 204.675 242.032 204.73 242.374 204.803L241.99 207.623C241.66 207.538 241.294 207.471 240.891 207.422C240.488 207.373 240.11 207.349 239.756 207.349C238.95 207.349 238.187 207.513 237.467 207.843C236.759 208.16 236.136 208.624 235.599 209.235C235.062 209.833 234.641 210.559 234.336 211.414C234.031 212.256 233.878 213.196 233.878 214.233V225H230.82V204.932H233.347L233.677 208.63H233.805C234.22 207.886 234.72 207.208 235.306 206.598C235.892 205.975 236.57 205.481 237.339 205.115C238.12 204.749 238.987 204.565 239.939 204.565ZM255.667 204.565C258.048 204.565 259.848 205.151 261.069 206.323C262.29 207.483 262.9 209.351 262.9 211.926V225H259.897V212.128C259.897 210.455 259.513 209.204 258.744 208.374C257.987 207.544 256.821 207.129 255.246 207.129C253.025 207.129 251.462 207.758 250.559 209.015C249.656 210.272 249.204 212.097 249.204 214.49V225H246.164V204.932H248.618L249.076 207.825H249.24C249.668 207.117 250.211 206.525 250.87 206.049C251.529 205.56 252.268 205.194 253.086 204.95C253.904 204.694 254.764 204.565 255.667 204.565ZM276.67 204.602C279.062 204.602 280.838 205.139 281.998 206.213C283.158 207.288 283.738 209.003 283.738 211.359V225H281.522L280.936 222.034H280.79C280.228 222.766 279.642 223.383 279.032 223.883C278.421 224.371 277.713 224.744 276.908 225C276.114 225.244 275.138 225.366 273.978 225.366C272.757 225.366 271.671 225.153 270.719 224.725C269.779 224.298 269.034 223.651 268.485 222.784C267.948 221.918 267.679 220.819 267.679 219.489C267.679 217.487 268.473 215.948 270.06 214.874C271.646 213.8 274.063 213.214 277.311 213.116L280.771 212.97V211.743C280.771 210.01 280.399 208.795 279.654 208.099C278.91 207.404 277.86 207.056 276.505 207.056C275.455 207.056 274.454 207.208 273.502 207.513C272.55 207.819 271.646 208.179 270.792 208.594L269.858 206.287C270.761 205.823 271.799 205.426 272.971 205.096C274.143 204.767 275.376 204.602 276.67 204.602ZM280.735 215.112L277.677 215.24C275.174 215.338 273.41 215.747 272.385 216.467C271.36 217.188 270.847 218.207 270.847 219.525C270.847 220.673 271.195 221.521 271.891 222.07C272.586 222.62 273.508 222.894 274.656 222.894C276.438 222.894 277.896 222.4 279.032 221.411C280.167 220.422 280.735 218.939 280.735 216.962V215.112ZM311.789 204.565C313.999 204.565 315.665 205.145 316.788 206.305C317.911 207.452 318.473 209.302 318.473 211.853V225H315.47V212C315.47 210.376 315.116 209.161 314.408 208.356C313.712 207.538 312.674 207.129 311.295 207.129C309.354 207.129 307.944 207.69 307.065 208.813C306.186 209.937 305.747 211.591 305.747 213.776V225H302.726V212C302.726 210.913 302.567 210.01 302.25 209.29C301.944 208.569 301.48 208.032 300.858 207.678C300.248 207.312 299.472 207.129 298.532 207.129C297.202 207.129 296.134 207.404 295.328 207.953C294.522 208.502 293.937 209.32 293.57 210.406C293.216 211.481 293.039 212.805 293.039 214.38V225H290V204.932H292.453L292.911 207.77H293.076C293.479 207.074 293.985 206.488 294.596 206.012C295.206 205.536 295.89 205.176 296.646 204.932C297.403 204.688 298.209 204.565 299.063 204.565C300.589 204.565 301.865 204.852 302.89 205.426C303.928 205.988 304.679 206.848 305.143 208.008H305.307C305.967 206.848 306.87 205.988 308.017 205.426C309.165 204.852 310.422 204.565 311.789 204.565ZM327.756 196.509V203.632C327.756 204.449 327.732 205.243 327.683 206.012C327.646 206.781 327.616 207.379 327.591 207.806H327.756C328.305 206.903 329.099 206.14 330.136 205.518C331.174 204.895 332.499 204.584 334.11 204.584C336.625 204.584 338.626 205.457 340.116 207.202C341.617 208.936 342.368 211.517 342.368 214.948C342.368 217.206 342.026 219.11 341.343 220.66C340.659 222.211 339.695 223.383 338.449 224.176C337.204 224.969 335.733 225.366 334.037 225.366C332.45 225.366 331.144 225.073 330.118 224.487C329.105 223.889 328.324 223.163 327.774 222.308H327.536L326.914 225H324.717V196.509H327.756ZM333.615 207.129C332.163 207.129 331.009 207.416 330.155 207.99C329.3 208.551 328.684 209.406 328.305 210.553C327.939 211.688 327.756 213.129 327.756 214.874V215.039C327.756 217.566 328.177 219.501 329.02 220.844C329.862 222.174 331.394 222.839 333.615 222.839C335.483 222.839 336.881 222.156 337.809 220.789C338.749 219.421 339.219 217.468 339.219 214.929C339.219 212.341 338.755 210.394 337.827 209.088C336.911 207.782 335.508 207.129 333.615 207.129ZM364.249 204.932V225H361.759L361.319 222.18H361.155C360.74 222.876 360.202 223.462 359.543 223.938C358.884 224.414 358.139 224.768 357.309 225C356.491 225.244 355.619 225.366 354.691 225.366C353.104 225.366 351.773 225.11 350.699 224.597C349.625 224.084 348.813 223.291 348.264 222.217C347.727 221.143 347.458 219.763 347.458 218.079V204.932H350.534V217.859C350.534 219.531 350.913 220.782 351.67 221.613C352.427 222.43 353.58 222.839 355.13 222.839C356.62 222.839 357.804 222.559 358.683 221.997C359.574 221.436 360.215 220.612 360.605 219.525C360.996 218.427 361.191 217.084 361.191 215.497V204.932H364.249ZM378.714 225.366C376.908 225.366 375.315 224.994 373.935 224.249C372.556 223.505 371.482 222.369 370.713 220.844C369.944 219.318 369.559 217.395 369.559 215.076C369.559 212.646 369.962 210.663 370.768 209.125C371.585 207.574 372.708 206.427 374.137 205.682C375.565 204.938 377.188 204.565 379.007 204.565C380.008 204.565 380.973 204.669 381.9 204.877C382.84 205.072 383.609 205.322 384.208 205.627L383.292 208.173C382.682 207.928 381.974 207.709 381.168 207.513C380.375 207.318 379.63 207.22 378.934 207.22C377.542 207.22 376.383 207.52 375.455 208.118C374.54 208.716 373.85 209.595 373.386 210.754C372.934 211.914 372.708 213.342 372.708 215.039C372.708 216.663 372.928 218.048 373.368 219.196C373.819 220.343 374.485 221.222 375.364 221.832C376.255 222.43 377.365 222.729 378.696 222.729C379.758 222.729 380.716 222.62 381.571 222.4C382.425 222.168 383.2 221.899 383.896 221.594V224.304C383.225 224.646 382.474 224.908 381.644 225.092C380.826 225.275 379.85 225.366 378.714 225.366ZM405.96 214.929C405.96 216.577 405.747 218.048 405.32 219.342C404.892 220.636 404.276 221.729 403.47 222.62C402.665 223.511 401.688 224.194 400.541 224.67C399.405 225.134 398.117 225.366 396.677 225.366C395.334 225.366 394.101 225.134 392.978 224.67C391.867 224.194 390.903 223.511 390.085 222.62C389.28 221.729 388.651 220.636 388.199 219.342C387.76 218.048 387.54 216.577 387.54 214.929C387.54 212.732 387.912 210.864 388.657 209.326C389.402 207.776 390.464 206.598 391.843 205.792C393.235 204.974 394.889 204.565 396.805 204.565C398.636 204.565 400.235 204.974 401.603 205.792C402.982 206.61 404.05 207.794 404.807 209.344C405.576 210.883 405.96 212.744 405.96 214.929ZM390.689 214.929C390.689 216.541 390.903 217.938 391.33 219.122C391.758 220.306 392.417 221.222 393.308 221.869C394.199 222.516 395.346 222.839 396.75 222.839C398.142 222.839 399.283 222.516 400.174 221.869C401.078 221.222 401.743 220.306 402.17 219.122C402.597 217.938 402.811 216.541 402.811 214.929C402.811 213.33 402.597 211.951 402.17 210.791C401.743 209.619 401.084 208.716 400.193 208.081C399.302 207.446 398.148 207.129 396.732 207.129C394.645 207.129 393.113 207.819 392.136 209.198C391.172 210.577 390.689 212.488 390.689 214.929Z" fill="black"/>
<rect x="5" y="65" width="50" height="50" rx="10" fill="#2F9E41"/>
<rect x="65" y="2" width="50" height="50" rx="10" fill="#2F9E41"/>
<rect x="125" y="2" width="50" height="50" rx="10" fill="#2F9E41"/>
<rect x="65" y="185" width="50" height="50" rx="10" fill="#2F9E41"/>
<rect x="125" y="125" width="50" height="50" rx="10" fill="#2F9E41"/>
<rect x="65" y="125" width="50" height="50" rx="10" fill="#2F9E41"/>
<rect x="65" y="65" width="50" height="50" rx="10" fill="#2F9E41"/>
<rect x="5" y="185" width="50" height="50" rx="10" fill="#2F9E41"/>
<rect x="5" y="125" width="50" height="50" rx="10" fill="#2F9E41"/>
<rect width="55" height="55" rx="27.5" fill="#CD191E"/>
<rect width="55" height="55" rx="27.5" fill="#CD191E"/>
<path d="M210.58 158.359C210.58 161.374 210 163.895 208.84 165.921C207.693 167.935 206.027 169.455 203.842 170.48C201.656 171.493 199.026 172 195.95 172H188.369V145.23H196.774C199.581 145.23 202.017 145.73 204.08 146.731C206.143 147.72 207.742 149.191 208.877 151.144C210.012 153.085 210.58 155.49 210.58 158.359ZM204.684 158.505C204.684 156.528 204.391 154.904 203.805 153.635C203.231 152.353 202.377 151.407 201.241 150.796C200.118 150.186 198.727 149.881 197.067 149.881H194.045V167.312H196.481C199.252 167.312 201.309 166.574 202.651 165.097C204.006 163.62 204.684 161.423 204.684 158.505ZM231.545 172H216.128V145.23H231.545V149.881H221.804V155.759H230.868V160.409H221.804V167.312H231.545V172ZM262.307 172H246.89V145.23H262.307V149.881H252.566V155.759H261.63V160.409H252.566V167.312H262.307V172ZM290.121 158.359C290.121 161.374 289.541 163.895 288.381 165.921C287.234 167.935 285.568 169.455 283.383 170.48C281.198 171.493 278.567 172 275.491 172H267.91V145.23H276.315C279.122 145.23 281.558 145.73 283.621 146.731C285.684 147.72 287.283 149.191 288.418 151.144C289.553 153.085 290.121 155.49 290.121 158.359ZM284.225 158.505C284.225 156.528 283.932 154.904 283.346 153.635C282.772 152.353 281.918 151.407 280.782 150.796C279.659 150.186 278.268 149.881 276.608 149.881H273.586V167.312H276.022C278.793 167.312 280.85 166.574 282.192 165.097C283.547 163.62 284.225 161.423 284.225 158.505ZM317.458 145.23V162.552C317.458 164.395 317.05 166.061 316.232 167.551C315.426 169.028 314.199 170.199 312.551 171.066C310.916 171.933 308.853 172.366 306.362 172.366C302.822 172.366 300.125 171.463 298.269 169.656C296.414 167.85 295.486 165.457 295.486 162.479V145.23H301.144V161.618C301.144 163.827 301.595 165.378 302.499 166.269C303.402 167.16 304.739 167.605 306.509 167.605C307.754 167.605 308.761 167.392 309.53 166.965C310.311 166.537 310.885 165.878 311.251 164.987C311.617 164.096 311.801 162.961 311.801 161.581V145.23H317.458ZM335.385 149.57C334.298 149.57 333.334 149.783 332.491 150.21C331.661 150.625 330.959 151.23 330.386 152.023C329.824 152.817 329.397 153.775 329.104 154.898C328.811 156.021 328.665 157.284 328.665 158.688C328.665 160.58 328.896 162.198 329.36 163.541C329.836 164.871 330.569 165.89 331.558 166.598C332.546 167.294 333.822 167.642 335.385 167.642C336.471 167.642 337.557 167.52 338.644 167.276C339.742 167.032 340.933 166.684 342.214 166.232V170.993C341.03 171.481 339.865 171.829 338.717 172.037C337.57 172.256 336.282 172.366 334.854 172.366C332.095 172.366 329.824 171.799 328.042 170.663C326.272 169.516 324.96 167.917 324.105 165.866C323.251 163.803 322.823 161.398 322.823 158.652C322.823 156.625 323.098 154.77 323.647 153.085C324.197 151.401 325.002 149.942 326.064 148.709C327.126 147.476 328.439 146.524 330.001 145.853C331.564 145.181 333.358 144.845 335.385 144.845C336.715 144.845 338.046 145.016 339.376 145.358C340.719 145.688 342.001 146.146 343.221 146.731L341.39 151.346C340.389 150.87 339.382 150.455 338.369 150.101C337.356 149.747 336.361 149.57 335.385 149.57ZM364.315 172L362.374 165.628H352.615L350.674 172H344.558L354.006 145.12H360.946L370.431 172H364.315ZM361.019 160.867L359.078 154.642C358.956 154.227 358.792 153.696 358.584 153.049C358.389 152.389 358.187 151.724 357.98 151.053C357.784 150.369 357.626 149.777 357.504 149.277C357.382 149.777 357.211 150.4 356.991 151.144C356.783 151.877 356.582 152.573 356.387 153.232C356.191 153.891 356.051 154.361 355.966 154.642L354.043 160.867H361.019ZM385.189 149.57C384.103 149.57 383.138 149.783 382.296 150.21C381.466 150.625 380.764 151.23 380.19 152.023C379.629 152.817 379.202 153.775 378.909 154.898C378.616 156.021 378.469 157.284 378.469 158.688C378.469 160.58 378.701 162.198 379.165 163.541C379.641 164.871 380.374 165.89 381.362 166.598C382.351 167.294 383.627 167.642 385.189 167.642C386.276 167.642 387.362 167.52 388.448 167.276C389.547 167.032 390.737 166.684 392.019 166.232V170.993C390.835 171.481 389.669 171.829 388.522 172.037C387.374 172.256 386.086 172.366 384.658 172.366C381.899 172.366 379.629 171.799 377.847 170.663C376.077 169.516 374.764 167.917 373.91 165.866C373.055 163.803 372.628 161.398 372.628 158.652C372.628 156.625 372.903 154.77 373.452 153.085C374.001 151.401 374.807 149.942 375.869 148.709C376.931 147.476 378.243 146.524 379.806 145.853C381.368 145.181 383.163 144.845 385.189 144.845C386.52 144.845 387.85 145.016 389.181 145.358C390.524 145.688 391.805 146.146 393.026 146.731L391.195 151.346C390.194 150.87 389.187 150.455 388.174 150.101C387.161 149.747 386.166 149.57 385.189 149.57ZM388.687 176.578C388.687 177.981 388.278 179.068 387.46 179.837C386.642 180.618 385.165 181.009 383.029 181.009C382.479 181.009 381.985 180.972 381.545 180.899C381.106 180.826 380.709 180.734 380.355 180.624V177.548C380.709 177.634 381.143 177.719 381.655 177.804C382.168 177.89 382.607 177.933 382.974 177.933C383.328 177.933 383.633 177.847 383.889 177.676C384.158 177.518 384.292 177.225 384.292 176.797C384.292 176.346 384.066 175.943 383.615 175.589C383.163 175.235 382.375 174.979 381.252 174.82L382.681 172H386.215L385.72 173.117C386.221 173.276 386.697 173.508 387.148 173.813C387.6 174.13 387.966 174.515 388.247 174.966C388.54 175.43 388.687 175.967 388.687 176.578ZM414.12 172L412.179 165.628H402.419L400.479 172H394.363L403.811 145.12H410.751L420.236 172H414.12ZM410.824 160.867L408.883 154.642C408.761 154.227 408.596 153.696 408.389 153.049C408.193 152.389 407.992 151.724 407.784 151.053C407.589 150.369 407.43 149.777 407.308 149.277C407.186 149.777 407.015 150.4 406.796 151.144C406.588 151.877 406.387 152.573 406.191 153.232C405.996 153.891 405.856 154.361 405.77 154.642L403.848 160.867H410.824ZM399.691 143.014C399.764 142.038 399.941 141.196 400.222 140.488C400.503 139.767 400.869 139.181 401.321 138.73C401.772 138.266 402.279 137.924 402.841 137.704C403.414 137.472 404.025 137.356 404.672 137.356C405.172 137.356 405.66 137.454 406.136 137.649C406.625 137.833 407.101 138.052 407.565 138.309C408.041 138.565 408.505 138.791 408.956 138.986C409.42 139.169 409.872 139.261 410.311 139.261C410.677 139.261 411.031 139.102 411.373 138.785C411.727 138.455 411.984 137.967 412.142 137.32H414.871C414.724 139.249 414.175 140.677 413.223 141.604C412.271 142.52 411.16 142.978 409.89 142.978C409.39 142.978 408.895 142.88 408.407 142.685C407.931 142.49 407.455 142.27 406.979 142.026C406.515 141.769 406.057 141.543 405.605 141.348C405.154 141.153 404.708 141.055 404.269 141.055C403.89 141.055 403.524 141.22 403.17 141.55C402.828 141.867 402.578 142.355 402.419 143.014H399.691ZM447.921 158.578C447.921 160.641 447.665 162.521 447.152 164.218C446.639 165.903 445.858 167.355 444.808 168.576C443.771 169.797 442.452 170.737 440.853 171.396C439.254 172.043 437.362 172.366 435.177 172.366C432.992 172.366 431.1 172.043 429.501 171.396C427.902 170.737 426.577 169.797 425.527 168.576C424.49 167.355 423.715 165.896 423.202 164.2C422.689 162.503 422.433 160.617 422.433 158.542C422.433 155.771 422.885 153.36 423.788 151.309C424.703 149.246 426.107 147.647 427.999 146.512C429.891 145.376 432.296 144.809 435.214 144.809C438.119 144.809 440.505 145.376 442.373 146.512C444.253 147.647 445.645 149.246 446.548 151.309C447.463 153.372 447.921 155.795 447.921 158.578ZM428.384 158.578C428.384 160.446 428.616 162.057 429.08 163.412C429.556 164.755 430.294 165.793 431.295 166.525C432.296 167.245 433.59 167.605 435.177 167.605C436.788 167.605 438.094 167.245 439.095 166.525C440.096 165.793 440.823 164.755 441.274 163.412C441.738 162.057 441.97 160.446 441.97 158.578C441.97 155.771 441.445 153.561 440.396 151.95C439.346 150.339 437.618 149.533 435.214 149.533C433.615 149.533 432.308 149.899 431.295 150.632C430.294 151.352 429.556 152.389 429.08 153.744C428.616 155.087 428.384 156.698 428.384 158.578ZM458.23 167.642L458.505 168.063C458.285 168.942 457.998 169.888 457.644 170.901C457.302 171.915 456.924 172.928 456.509 173.941C456.106 174.954 455.697 175.918 455.282 176.834H451.254C451.498 175.845 451.736 174.808 451.968 173.721C452.2 172.635 452.413 171.567 452.609 170.517C452.816 169.467 452.981 168.509 453.103 167.642H458.23ZM485.275 149.57C484.188 149.57 483.224 149.783 482.382 150.21C481.552 150.625 480.85 151.23 480.276 152.023C479.714 152.817 479.287 153.775 478.994 154.898C478.701 156.021 478.555 157.284 478.555 158.688C478.555 160.58 478.787 162.198 479.25 163.541C479.727 164.871 480.459 165.89 481.448 166.598C482.437 167.294 483.712 167.642 485.275 167.642C486.361 167.642 487.448 167.52 488.534 167.276C489.633 167.032 490.823 166.684 492.104 166.232V170.993C490.92 171.481 489.755 171.829 488.607 172.037C487.46 172.256 486.172 172.366 484.744 172.366C481.985 172.366 479.714 171.799 477.932 170.663C476.162 169.516 474.85 167.917 473.995 165.866C473.141 163.803 472.714 161.398 472.714 158.652C472.714 156.625 472.988 154.77 473.538 153.085C474.087 151.401 474.893 149.942 475.955 148.709C477.017 147.476 478.329 146.524 479.891 145.853C481.454 145.181 483.248 144.845 485.275 144.845C486.605 144.845 487.936 145.016 489.266 145.358C490.609 145.688 491.891 146.146 493.112 146.731L491.281 151.346C490.28 150.87 489.272 150.455 488.259 150.101C487.246 149.747 486.251 149.57 485.275 149.57ZM497.817 172V145.23H503.494V172H497.817ZM525.649 172H510.232V145.23H525.649V149.881H515.908V155.759H524.972V160.409H515.908V167.312H525.649V172ZM521.438 136.972C521.792 137.533 522.25 138.156 522.811 138.84C523.385 139.523 523.971 140.188 524.569 140.835C525.167 141.482 525.686 142.032 526.125 142.483V142.978H522.427C521.768 142.587 521.047 142.123 520.266 141.586C519.497 141.037 518.789 140.427 518.142 139.755C517.483 140.427 516.781 141.031 516.036 141.568C515.292 142.093 514.596 142.563 513.949 142.978H510.232V142.483C510.696 142.02 511.227 141.47 511.825 140.835C512.423 140.188 513.003 139.523 513.564 138.84C514.126 138.156 514.578 137.533 514.919 136.972H521.438ZM555.001 172H547.787L536.141 151.749H535.977C536.025 152.591 536.068 153.439 536.105 154.294C536.141 155.148 536.178 156.003 536.215 156.857C536.251 157.699 536.288 158.548 536.324 159.402V172H531.252V145.23H538.412L550.039 165.28H550.167C550.143 164.45 550.112 163.626 550.076 162.808C550.039 161.99 550.002 161.172 549.966 160.354C549.941 159.537 549.917 158.719 549.893 157.901V145.23H555.001V172ZM573.129 149.57C572.042 149.57 571.078 149.783 570.236 150.21C569.406 150.625 568.704 151.23 568.13 152.023C567.568 152.817 567.141 153.775 566.848 154.898C566.555 156.021 566.409 157.284 566.409 158.688C566.409 160.58 566.641 162.198 567.104 163.541C567.581 164.871 568.313 165.89 569.302 166.598C570.291 167.294 571.566 167.642 573.129 167.642C574.215 167.642 575.302 167.52 576.388 167.276C577.487 167.032 578.677 166.684 579.958 166.232V170.993C578.774 171.481 577.609 171.829 576.461 172.037C575.314 172.256 574.026 172.366 572.598 172.366C569.839 172.366 567.568 171.799 565.786 170.663C564.016 169.516 562.704 167.917 561.849 165.866C560.995 163.803 560.568 161.398 560.568 158.652C560.568 156.625 560.842 154.77 561.392 153.085C561.941 151.401 562.747 149.942 563.809 148.709C564.871 147.476 566.183 146.524 567.745 145.853C569.308 145.181 571.102 144.845 573.129 144.845C574.459 144.845 575.79 145.016 577.12 145.358C578.463 145.688 579.745 146.146 580.966 146.731L579.135 151.346C578.134 150.87 577.126 150.455 576.113 150.101C575.1 149.747 574.105 149.57 573.129 149.57ZM585.671 172V145.23H591.348V172H585.671ZM614.474 172L612.533 165.628H602.773L600.833 172H594.717L604.165 145.12H611.105L620.59 172H614.474ZM611.178 160.867L609.237 154.642C609.115 154.227 608.95 153.696 608.743 153.049C608.547 152.389 608.346 151.724 608.138 151.053C607.943 150.369 607.784 149.777 607.662 149.277C607.54 149.777 607.369 150.4 607.15 151.144C606.942 151.877 606.741 152.573 606.545 153.232C606.35 153.891 606.21 154.361 606.124 154.642L604.202 160.867H611.178ZM649.136 172H633.718V145.23H649.136V149.881H639.395V155.759H648.458V160.409H639.395V167.312H649.136V172ZM674.807 172H669.131V149.954H661.862V145.23H682.076V149.954H674.807V172ZM701.614 172H686.196V145.23H701.614V149.881H691.873V155.759H700.936V160.409H691.873V167.312H701.614V172ZM718.588 149.57C717.501 149.57 716.537 149.783 715.695 150.21C714.865 150.625 714.163 151.23 713.589 152.023C713.027 152.817 712.6 153.775 712.307 154.898C712.014 156.021 711.868 157.284 711.868 158.688C711.868 160.58 712.1 162.198 712.563 163.541C713.04 164.871 713.772 165.89 714.761 166.598C715.75 167.294 717.025 167.642 718.588 167.642C719.674 167.642 720.76 167.52 721.847 167.276C722.946 167.032 724.136 166.684 725.417 166.232V170.993C724.233 171.481 723.068 171.829 721.92 172.037C720.773 172.256 719.485 172.366 718.057 172.366C715.298 172.366 713.027 171.799 711.245 170.663C709.475 169.516 708.163 167.917 707.308 165.866C706.454 163.803 706.027 161.398 706.027 158.652C706.027 156.625 706.301 154.77 706.851 153.085C707.4 151.401 708.206 149.942 709.268 148.709C710.33 147.476 711.642 146.524 713.204 145.853C714.767 145.181 716.561 144.845 718.588 144.845C719.918 144.845 721.249 145.016 722.579 145.358C723.922 145.688 725.204 146.146 726.425 146.731L724.594 151.346C723.593 150.87 722.585 150.455 721.572 150.101C720.559 149.747 719.564 149.57 718.588 149.57ZM754.879 172H747.665L736.019 151.749H735.854C735.903 152.591 735.946 153.439 735.983 154.294C736.019 155.148 736.056 156.003 736.093 156.857C736.129 157.699 736.166 158.548 736.202 159.402V172H731.13V145.23H738.29L749.917 165.28H750.045C750.021 164.45 749.99 163.626 749.954 162.808C749.917 161.99 749.88 161.172 749.844 160.354C749.819 159.537 749.795 158.719 749.771 157.901V145.23H754.879V172ZM785.934 158.578C785.934 160.641 785.677 162.521 785.165 164.218C784.652 165.903 783.871 167.355 782.821 168.576C781.783 169.797 780.465 170.737 778.866 171.396C777.267 172.043 775.375 172.366 773.19 172.366C771.005 172.366 769.113 172.043 767.513 171.396C765.914 170.737 764.59 169.797 763.54 168.576C762.502 167.355 761.727 165.896 761.215 164.2C760.702 162.503 760.446 160.617 760.446 158.542C760.446 155.771 760.897 153.36 761.801 151.309C762.716 149.246 764.12 147.647 766.012 146.512C767.904 145.376 770.309 144.809 773.226 144.809C776.132 144.809 778.518 145.376 780.386 146.512C782.266 147.647 783.657 149.246 784.561 151.309C785.476 153.372 785.934 155.795 785.934 158.578ZM766.396 158.578C766.396 160.446 766.628 162.057 767.092 163.412C767.568 164.755 768.307 165.793 769.308 166.525C770.309 167.245 771.603 167.605 773.19 167.605C774.801 167.605 776.107 167.245 777.108 166.525C778.109 165.793 778.835 164.755 779.287 163.412C779.751 162.057 779.983 160.446 779.983 158.578C779.983 155.771 779.458 153.561 778.408 151.95C777.358 150.339 775.631 149.533 773.226 149.533C771.627 149.533 770.321 149.899 769.308 150.632C768.307 151.352 767.568 152.389 767.092 153.744C766.628 155.087 766.396 156.698 766.396 158.578ZM791.482 172V145.23H797.158V167.312H808.016V172H791.482ZM836.984 158.578C836.984 160.641 836.727 162.521 836.215 164.218C835.702 165.903 834.921 167.355 833.871 168.576C832.833 169.797 831.515 170.737 829.916 171.396C828.317 172.043 826.425 172.366 824.24 172.366C822.054 172.366 820.162 172.043 818.563 171.396C816.964 170.737 815.64 169.797 814.59 168.576C813.552 167.355 812.777 165.896 812.264 164.2C811.752 162.503 811.495 160.617 811.495 158.542C811.495 155.771 811.947 153.36 812.85 151.309C813.766 149.246 815.17 147.647 817.062 146.512C818.954 145.376 821.359 144.809 824.276 144.809C827.181 144.809 829.568 145.376 831.436 146.512C833.315 147.647 834.707 149.246 835.61 151.309C836.526 153.372 836.984 155.795 836.984 158.578ZM817.446 158.578C817.446 160.446 817.678 162.057 818.142 163.412C818.618 164.755 819.357 165.793 820.358 166.525C821.359 167.245 822.653 167.605 824.24 167.605C825.851 167.605 827.157 167.245 828.158 166.525C829.159 165.793 829.885 164.755 830.337 163.412C830.801 162.057 831.033 160.446 831.033 158.578C831.033 155.771 830.508 153.561 829.458 151.95C828.408 150.339 826.681 149.533 824.276 149.533C822.677 149.533 821.371 149.899 820.358 150.632C819.357 151.352 818.618 152.389 818.142 153.744C817.678 155.087 817.446 156.698 817.446 158.578ZM852.694 156.967H863.314V170.846C861.91 171.31 860.452 171.683 858.938 171.963C857.424 172.232 855.709 172.366 853.793 172.366C851.132 172.366 848.873 171.841 847.018 170.792C845.162 169.742 843.752 168.191 842.788 166.141C841.824 164.09 841.342 161.569 841.342 158.578C841.342 155.771 841.879 153.342 842.953 151.291C844.039 149.24 845.62 147.653 847.695 146.53C849.783 145.407 852.328 144.845 855.331 144.845C856.747 144.845 858.145 144.998 859.524 145.303C860.903 145.608 862.155 146.005 863.278 146.493L861.392 151.034C860.574 150.619 859.64 150.271 858.59 149.991C857.54 149.71 856.442 149.57 855.294 149.57C853.646 149.57 852.212 149.948 850.991 150.705C849.783 151.462 848.843 152.524 848.171 153.891C847.512 155.246 847.183 156.845 847.183 158.688C847.183 160.434 847.421 161.984 847.897 163.339C848.373 164.682 849.124 165.738 850.149 166.507C851.174 167.264 852.511 167.642 854.159 167.642C854.965 167.642 855.642 167.605 856.191 167.532C856.753 167.447 857.278 167.361 857.766 167.276V161.691H852.694V156.967ZM869.705 172V145.23H875.381V172H869.705ZM898.507 172L896.566 165.628H886.807L884.866 172H878.75L888.198 145.12H895.138L904.623 172H898.507ZM895.211 160.867L893.27 154.642C893.148 154.227 892.983 153.696 892.776 153.049C892.581 152.389 892.379 151.724 892.172 151.053C891.976 150.369 891.818 149.777 891.696 149.277C891.573 149.777 891.403 150.4 891.183 151.144C890.975 151.877 890.774 152.573 890.579 153.232C890.383 153.891 890.243 154.361 890.157 154.642L888.235 160.867H895.211Z" fill="black"/>
<path d="M190.369 111V84.23H196.045V111H190.369ZM226.532 111H219.318L207.673 90.7485H207.508C207.557 91.5908 207.599 92.4392 207.636 93.2937C207.673 94.1482 207.709 95.0027 207.746 95.8572C207.782 96.6995 207.819 97.5479 207.856 98.4023V111H202.784V84.23H209.943L221.57 104.28H221.698C221.674 103.45 221.644 102.626 221.607 101.808C221.57 100.99 221.534 100.172 221.497 99.3545C221.473 98.5366 221.448 97.7188 221.424 96.9009V84.23H226.532V111ZM249.091 103.566C249.091 105.153 248.707 106.532 247.938 107.704C247.168 108.876 246.045 109.779 244.568 110.414C243.104 111.049 241.321 111.366 239.222 111.366C238.294 111.366 237.385 111.305 236.493 111.183C235.615 111.061 234.766 110.884 233.948 110.652C233.143 110.408 232.374 110.109 231.641 109.755V104.481C232.911 105.043 234.229 105.55 235.596 106.001C236.963 106.453 238.318 106.679 239.661 106.679C240.589 106.679 241.333 106.557 241.895 106.312C242.469 106.068 242.884 105.733 243.14 105.305C243.396 104.878 243.525 104.39 243.525 103.841C243.525 103.169 243.299 102.595 242.847 102.119C242.396 101.643 241.773 101.198 240.979 100.783C240.198 100.368 239.313 99.9221 238.324 99.446C237.702 99.1531 237.024 98.7991 236.292 98.384C235.56 97.9568 234.864 97.438 234.205 96.8276C233.545 96.2173 233.002 95.4788 232.575 94.6121C232.16 93.7332 231.952 92.6833 231.952 91.4626C231.952 89.8635 232.319 88.4963 233.051 87.3611C233.783 86.2258 234.827 85.3591 236.182 84.761C237.549 84.1506 239.161 83.8455 241.016 83.8455C242.408 83.8455 243.732 84.0103 244.99 84.3398C246.259 84.6572 247.583 85.1211 248.963 85.7314L247.132 90.1443C245.899 89.6438 244.794 89.2593 243.818 88.9907C242.841 88.71 241.846 88.5696 240.833 88.5696C240.125 88.5696 239.521 88.6855 239.02 88.9175C238.52 89.1372 238.141 89.4546 237.885 89.8696C237.629 90.2725 237.5 90.7424 237.5 91.2795C237.5 91.9143 237.684 92.4514 238.05 92.8909C238.428 93.3181 238.99 93.7332 239.734 94.136C240.491 94.5388 241.431 95.0088 242.554 95.5459C243.921 96.1929 245.087 96.8704 246.052 97.5784C247.028 98.2742 247.779 99.0981 248.304 100.05C248.829 100.99 249.091 102.162 249.091 103.566ZM264.271 111H258.594V88.9541H251.325V84.23H271.54V88.9541H264.271V111ZM275.66 111V84.23H281.336V111H275.66ZM298.401 111H292.725V88.9541H285.456V84.23H305.671V88.9541H298.401V111ZM331.58 84.23V101.552C331.58 103.395 331.171 105.061 330.353 106.551C329.548 108.028 328.321 109.199 326.673 110.066C325.037 110.933 322.974 111.366 320.484 111.366C316.944 111.366 314.246 110.463 312.391 108.656C310.535 106.85 309.607 104.457 309.607 101.479V84.23H315.265V100.618C315.265 102.827 315.717 104.378 316.62 105.269C317.524 106.16 318.86 106.605 320.63 106.605C321.875 106.605 322.883 106.392 323.652 105.965C324.433 105.537 325.007 104.878 325.373 103.987C325.739 103.096 325.922 101.961 325.922 100.581V84.23H331.58ZM348.462 111H342.786V88.9541H335.517V84.23H355.732V88.9541H348.462V111ZM384.15 97.5784C384.15 99.6414 383.893 101.521 383.381 103.218C382.868 104.903 382.087 106.355 381.037 107.576C379.999 108.797 378.681 109.737 377.082 110.396C375.483 111.043 373.591 111.366 371.406 111.366C369.22 111.366 367.328 111.043 365.729 110.396C364.13 109.737 362.806 108.797 361.756 107.576C360.718 106.355 359.943 104.896 359.43 103.2C358.918 101.503 358.661 99.6169 358.661 97.5417C358.661 94.7708 359.113 92.3599 360.016 90.3091C360.932 88.2461 362.336 86.647 364.228 85.5117C366.12 84.3765 368.525 83.8088 371.442 83.8088C374.347 83.8088 376.734 84.3765 378.602 85.5117C380.481 86.647 381.873 88.2461 382.776 90.3091C383.692 92.3721 384.15 94.7952 384.15 97.5784ZM364.612 97.5784C364.612 99.446 364.844 101.057 365.308 102.412C365.784 103.755 366.523 104.793 367.524 105.525C368.525 106.245 369.819 106.605 371.406 106.605C373.017 106.605 374.323 106.245 375.324 105.525C376.325 104.793 377.051 103.755 377.503 102.412C377.967 101.057 378.199 99.446 378.199 97.5784C378.199 94.7708 377.674 92.5613 376.624 90.95C375.574 89.3386 373.847 88.533 371.442 88.533C369.843 88.533 368.537 88.8992 367.524 89.6316C366.523 90.3518 365.784 91.3894 365.308 92.7444C364.844 94.0872 364.612 95.6985 364.612 97.5784ZM405.024 111H399.439V84.23H414.783V88.8809H405.024V95.7839H414.106V100.417H405.024V111ZM435.438 111H420.02V84.23H435.438V88.8809H425.696V94.7585H434.76V99.4094H425.696V106.312H435.438V111ZM463.251 97.3586C463.251 100.374 462.671 102.895 461.512 104.921C460.364 106.935 458.698 108.455 456.513 109.48C454.328 110.493 451.697 111 448.621 111H441.041V84.23H449.445C452.253 84.23 454.688 84.7305 456.751 85.7314C458.814 86.7202 460.413 88.1912 461.548 90.1443C462.684 92.0852 463.251 94.49 463.251 97.3586ZM457.355 97.5051C457.355 95.5276 457.062 93.9041 456.476 92.6345C455.903 91.3528 455.048 90.4067 453.913 89.7964C452.79 89.186 451.398 88.8809 449.738 88.8809H446.717V106.312H449.152C451.923 106.312 453.98 105.574 455.323 104.097C456.678 102.62 457.355 100.423 457.355 97.5051ZM484.217 111H468.799V84.23H484.217V88.8809H474.476V94.7585H483.539V99.4094H474.476V106.312H484.217V111ZM497.62 84.23C500.049 84.23 502.051 84.5229 503.626 85.1089C505.213 85.6948 506.391 86.5798 507.16 87.7639C507.929 88.948 508.313 90.4434 508.313 92.25C508.313 93.4707 508.082 94.5388 507.618 95.4543C507.154 96.3699 506.543 97.145 505.787 97.7798C505.03 98.4146 504.212 98.9333 503.333 99.3362L511.207 111H504.908L498.517 100.728H495.496V111H489.82V84.23H497.62ZM497.217 88.8809H495.496V96.1135H497.327C499.207 96.1135 500.55 95.8022 501.355 95.1797C502.173 94.5449 502.582 93.6172 502.582 92.3965C502.582 91.127 502.143 90.2236 501.264 89.6865C500.397 89.1494 499.048 88.8809 497.217 88.8809ZM530.964 111L529.023 104.628H519.263L517.322 111H511.207L520.655 84.1201H527.594L537.079 111H530.964ZM527.668 99.8672L525.727 93.6416C525.605 93.2266 525.44 92.6956 525.232 92.0486C525.037 91.3894 524.836 90.7241 524.628 90.0527C524.433 89.3691 524.274 88.7771 524.152 88.2766C524.03 88.7771 523.859 89.3997 523.639 90.1443C523.432 90.8767 523.23 91.5725 523.035 92.2317C522.84 92.8909 522.699 93.3608 522.614 93.6416L520.691 99.8672H527.668ZM540.467 111V84.23H546.143V106.312H557.001V111H540.467Z" fill="black"/>
</svg>
