<svg width="1765" height="119" viewBox="0 0 1765 119" fill="none" xmlns="http://www.w3.org/2000/svg">
<rect x="67.3664" width="51.8203" height="50" rx="10" fill="#2F9E41"/>
<rect x="64.2572" y="60" width="57.0023" height="55" rx="27.5" fill="#CD191E"/>
<rect width="57.0023" height="55" rx="27.5" fill="#CD191E"/>
<rect x="2.07275" y="65" width="51.8203" height="50" rx="10" fill="#2F9E41"/>
<path d="M138.746 35.5447L132.155 25.5288H138.49L142.463 32.0474L146.473 25.5288H152.809L146.144 35.5447L153.12 46H146.766L142.463 38.9871L138.142 46H131.807L138.746 35.5447ZM165.223 19.23C168.678 19.23 171.199 19.9746 172.786 21.4639C174.373 22.9409 175.166 24.9795 175.166 27.5796C175.166 28.7515 174.989 29.8745 174.635 30.9487C174.281 32.0107 173.701 32.9568 172.896 33.7869C172.102 34.6169 171.04 35.2761 169.71 35.7644C168.379 36.2405 166.737 36.4785 164.784 36.4785H162.349V46H156.672V19.23H165.223ZM164.93 23.8809H162.349V31.8276H164.216C165.278 31.8276 166.2 31.6873 166.981 31.4065C167.763 31.1257 168.367 30.6863 168.794 30.0881C169.221 29.49 169.435 28.7209 169.435 27.781C169.435 26.4626 169.069 25.4861 168.336 24.8513C167.604 24.2043 166.469 23.8809 164.93 23.8809ZM188.771 19.23C192.225 19.23 194.746 19.9746 196.333 21.4639C197.92 22.9409 198.713 24.9795 198.713 27.5796C198.713 28.7515 198.536 29.8745 198.182 30.9487C197.828 32.0107 197.249 32.9568 196.443 33.7869C195.649 34.6169 194.587 35.2761 193.257 35.7644C191.926 36.2405 190.284 36.4785 188.331 36.4785H185.896V46H180.22V19.23H188.771ZM188.478 23.8809H185.896V31.8276H187.764C188.826 31.8276 189.747 31.6873 190.529 31.4065C191.31 31.1257 191.914 30.6863 192.341 30.0881C192.769 29.49 192.982 28.7209 192.982 27.781C192.982 26.4626 192.616 25.4861 191.884 24.8513C191.151 24.2043 190.016 23.8809 188.478 23.8809ZM215.138 23.5696C214.052 23.5696 213.087 23.7832 212.245 24.2104C211.415 24.6255 210.713 25.2297 210.139 26.0232C209.578 26.8167 209.15 27.7749 208.857 28.8979C208.565 30.021 208.418 31.2844 208.418 32.6882C208.418 34.5803 208.65 36.1978 209.114 37.5405C209.59 38.8711 210.322 39.8904 211.311 40.5984C212.3 41.2942 213.576 41.6421 215.138 41.6421C216.224 41.6421 217.311 41.52 218.397 41.2759C219.496 41.0317 220.686 40.6838 221.968 40.2322V44.9929C220.784 45.4812 219.618 45.8291 218.471 46.0366C217.323 46.2563 216.035 46.3662 214.607 46.3662C211.848 46.3662 209.578 45.7986 207.795 44.6633C206.025 43.5159 204.713 41.9167 203.859 39.866C203.004 37.803 202.577 35.3982 202.577 32.6516C202.577 30.6252 202.852 28.7698 203.401 27.0852C203.95 25.4006 204.756 23.9419 205.818 22.709C206.88 21.4761 208.192 20.5239 209.755 19.8525C211.317 19.1812 213.112 18.8455 215.138 18.8455C216.469 18.8455 217.799 19.0164 219.13 19.3582C220.472 19.6877 221.754 20.1455 222.975 20.7314L221.144 25.3457C220.143 24.8696 219.136 24.4546 218.123 24.1006C217.109 23.7466 216.115 23.5696 215.138 23.5696Z" fill="black"/>
<path d="M152.076 110L148.781 101.504H138.051L134.773 110H131.624L142.097 83.1201H144.899L155.299 110H152.076ZM147.847 98.739L144.716 90.2979C144.642 90.0781 144.52 89.718 144.349 89.2175C144.191 88.717 144.026 88.1982 143.855 87.6611C143.684 87.124 143.544 86.6907 143.434 86.3611C143.312 86.8616 143.178 87.3621 143.031 87.8625C142.897 88.3508 142.763 88.8086 142.628 89.2358C142.494 89.6509 142.378 90.0049 142.28 90.2979L139.094 98.739H147.847ZM167.988 89.5654C170.491 89.5654 172.487 90.426 173.976 92.1472C175.465 93.8684 176.21 96.4563 176.21 99.9109C176.21 102.194 175.868 104.11 175.184 105.66C174.501 107.211 173.536 108.383 172.291 109.176C171.058 109.969 169.6 110.366 167.915 110.366C166.853 110.366 165.919 110.226 165.114 109.945C164.308 109.664 163.618 109.286 163.044 108.81C162.471 108.334 161.995 107.815 161.616 107.253H161.397C161.433 107.729 161.476 108.303 161.525 108.975C161.586 109.646 161.616 110.232 161.616 110.732V118.972H158.558V89.9316H161.067L161.47 92.8979H161.616C162.007 92.2876 162.483 91.7322 163.044 91.2317C163.606 90.719 164.29 90.3162 165.095 90.0232C165.913 89.718 166.878 89.5654 167.988 89.5654ZM167.457 92.1289C166.066 92.1289 164.943 92.3975 164.088 92.9346C163.246 93.4717 162.629 94.2773 162.239 95.3516C161.848 96.4136 161.641 97.7502 161.616 99.3616V99.9475C161.616 101.644 161.799 103.079 162.166 104.25C162.544 105.422 163.16 106.313 164.015 106.924C164.882 107.534 166.041 107.839 167.494 107.839C168.739 107.839 169.777 107.504 170.607 106.832C171.437 106.161 172.053 105.227 172.456 104.031C172.871 102.822 173.079 101.437 173.079 99.8743C173.079 97.5061 172.615 95.6262 171.687 94.2346C170.772 92.8308 169.362 92.1289 167.457 92.1289ZM184.578 110H181.52V81.5088H184.578V110ZM194.044 89.9316V110H191.005V89.9316H194.044ZM192.561 82.4243C193.062 82.4243 193.489 82.5891 193.843 82.9187C194.209 83.2361 194.392 83.7366 194.392 84.4202C194.392 85.0916 194.209 85.592 193.843 85.9216C193.489 86.2512 193.062 86.416 192.561 86.416C192.036 86.416 191.597 86.2512 191.243 85.9216C190.901 85.592 190.73 85.0916 190.73 84.4202C190.73 83.7366 190.901 83.2361 191.243 82.9187C191.597 82.5891 192.036 82.4243 192.561 82.4243ZM208.528 110.366C206.721 110.366 205.128 109.994 203.749 109.249C202.369 108.505 201.295 107.369 200.526 105.844C199.757 104.318 199.373 102.395 199.373 100.076C199.373 97.6465 199.775 95.6628 200.581 94.1248C201.399 92.5745 202.522 91.427 203.95 90.6824C205.378 89.9377 207.002 89.5654 208.821 89.5654C209.822 89.5654 210.786 89.6692 211.714 89.8767C212.654 90.072 213.423 90.3223 214.021 90.6274L213.106 93.1726C212.495 92.9285 211.787 92.7087 210.982 92.5134C210.188 92.3181 209.443 92.2205 208.748 92.2205C207.356 92.2205 206.196 92.5195 205.269 93.1177C204.353 93.7158 203.663 94.5947 203.2 95.7544C202.748 96.9141 202.522 98.3423 202.522 100.039C202.522 101.663 202.742 103.048 203.181 104.196C203.633 105.343 204.298 106.222 205.177 106.832C206.068 107.43 207.179 107.729 208.51 107.729C209.572 107.729 210.53 107.62 211.384 107.4C212.239 107.168 213.014 106.899 213.71 106.594V109.304C213.038 109.646 212.288 109.908 211.458 110.092C210.64 110.275 209.663 110.366 208.528 110.366ZM225.978 89.6021C228.37 89.6021 230.147 90.1392 231.306 91.2134C232.466 92.2876 233.046 94.0027 233.046 96.3586V110H230.83L230.244 107.034H230.098C229.536 107.766 228.95 108.383 228.34 108.883C227.73 109.371 227.022 109.744 226.216 110C225.422 110.244 224.446 110.366 223.286 110.366C222.065 110.366 220.979 110.153 220.027 109.725C219.087 109.298 218.342 108.651 217.793 107.784C217.256 106.918 216.987 105.819 216.987 104.489C216.987 102.487 217.781 100.948 219.368 99.8743C220.955 98.8 223.372 98.2141 226.619 98.1165L230.079 97.97V96.7432C230.079 95.0098 229.707 93.7952 228.962 93.0994C228.218 92.4036 227.168 92.0557 225.813 92.0557C224.763 92.0557 223.762 92.2083 222.81 92.5134C221.858 92.8186 220.955 93.1787 220.1 93.5938L219.166 91.2866C220.07 90.8228 221.107 90.426 222.279 90.0964C223.451 89.7668 224.684 89.6021 225.978 89.6021ZM230.043 100.112L226.985 100.24C224.482 100.338 222.719 100.747 221.693 101.467C220.668 102.188 220.155 103.207 220.155 104.525C220.155 105.673 220.503 106.521 221.199 107.07C221.895 107.62 222.816 107.894 223.964 107.894C225.746 107.894 227.205 107.4 228.34 106.411C229.475 105.422 230.043 103.939 230.043 101.962V100.112ZM247.346 110.366C245.54 110.366 243.947 109.994 242.567 109.249C241.188 108.505 240.114 107.369 239.345 105.844C238.576 104.318 238.191 102.395 238.191 100.076C238.191 97.6465 238.594 95.6628 239.399 94.1248C240.217 92.5745 241.34 91.427 242.769 90.6824C244.197 89.9377 245.82 89.5654 247.639 89.5654C248.64 89.5654 249.605 89.6692 250.532 89.8767C251.472 90.072 252.241 90.3223 252.839 90.6274L251.924 93.1726C251.314 92.9285 250.606 92.7087 249.8 92.5134C249.006 92.3181 248.262 92.2205 247.566 92.2205C246.174 92.2205 245.015 92.5195 244.087 93.1177C243.171 93.7158 242.482 94.5947 242.018 95.7544C241.566 96.9141 241.34 98.3423 241.34 100.039C241.34 101.663 241.56 103.048 242 104.196C242.451 105.343 243.117 106.222 243.995 106.832C244.887 107.43 245.997 107.729 247.328 107.729C248.39 107.729 249.348 107.62 250.203 107.4C251.057 107.168 251.832 106.899 252.528 106.594V109.304C251.857 109.646 251.106 109.908 250.276 110.092C249.458 110.275 248.482 110.366 247.346 110.366ZM250.331 115.237C250.331 116.421 249.873 117.343 248.958 118.002C248.042 118.673 246.699 119.009 244.929 119.009C244.551 119.009 244.191 118.984 243.849 118.936C243.507 118.899 243.232 118.856 243.025 118.807V116.885C243.257 116.934 243.556 116.976 243.922 117.013C244.288 117.05 244.655 117.068 245.021 117.068C245.936 117.068 246.638 116.934 247.127 116.665C247.615 116.396 247.859 115.945 247.859 115.31C247.859 114.639 247.529 114.15 246.87 113.845C246.223 113.54 245.393 113.333 244.38 113.223L246.01 110H248.042L247.053 112.051C247.664 112.173 248.213 112.362 248.701 112.618C249.202 112.875 249.598 113.217 249.891 113.644C250.184 114.071 250.331 114.602 250.331 115.237ZM264.796 89.6021C267.189 89.6021 268.965 90.1392 270.125 91.2134C271.284 92.2876 271.864 94.0027 271.864 96.3586V110H269.648L269.063 107.034H268.916C268.355 107.766 267.769 108.383 267.158 108.883C266.548 109.371 265.84 109.744 265.034 110C264.241 110.244 263.264 110.366 262.105 110.366C260.884 110.366 259.797 110.153 258.845 109.725C257.905 109.298 257.161 108.651 256.611 107.784C256.074 106.918 255.806 105.819 255.806 104.489C255.806 102.487 256.599 100.948 258.186 99.8743C259.773 98.8 262.19 98.2141 265.437 98.1165L268.898 97.97V96.7432C268.898 95.0098 268.525 93.7952 267.781 93.0994C267.036 92.4036 265.986 92.0557 264.631 92.0557C263.582 92.0557 262.581 92.2083 261.628 92.5134C260.676 92.8186 259.773 93.1787 258.919 93.5938L257.985 91.2866C258.888 90.8228 259.926 90.426 261.097 90.0964C262.269 89.7668 263.502 89.6021 264.796 89.6021ZM268.861 100.112L265.803 100.24C263.301 100.338 261.537 100.747 260.512 101.467C259.486 102.188 258.973 103.207 258.973 104.525C258.973 105.673 259.321 106.521 260.017 107.07C260.713 107.62 261.635 107.894 262.782 107.894C264.564 107.894 266.023 107.4 267.158 106.411C268.294 105.422 268.861 103.939 268.861 101.962V100.112ZM257.582 87.2217C257.655 86.4893 257.795 85.8362 258.003 85.2625C258.211 84.6887 258.485 84.2004 258.827 83.7976C259.169 83.3948 259.572 83.0896 260.035 82.8821C260.512 82.6624 261.036 82.5525 261.61 82.5525C262.172 82.5525 262.709 82.6685 263.221 82.9004C263.734 83.1201 264.222 83.3765 264.686 83.6694C265.15 83.9502 265.596 84.2065 266.023 84.4385C266.462 84.6582 266.884 84.7681 267.286 84.7681C267.872 84.7681 268.324 84.5911 268.641 84.2371C268.971 83.8708 269.221 83.2971 269.392 82.5159H271.187C271.028 83.9441 270.607 85.0854 269.923 85.9399C269.24 86.7822 268.318 87.2034 267.158 87.2034C266.621 87.2034 266.102 87.0935 265.602 86.8738C265.101 86.6418 264.619 86.3855 264.155 86.1047C263.691 85.8118 263.234 85.5554 262.782 85.3357C262.343 85.1038 261.909 84.9878 261.482 84.9878C260.884 84.9878 260.426 85.1709 260.109 85.5371C259.791 85.8911 259.547 86.4526 259.376 87.2217H257.582ZM295.43 99.9292C295.43 101.577 295.216 103.048 294.789 104.342C294.362 105.636 293.745 106.729 292.94 107.62C292.134 108.511 291.157 109.194 290.01 109.67C288.875 110.134 287.587 110.366 286.146 110.366C284.804 110.366 283.571 110.134 282.448 109.67C281.337 109.194 280.372 108.511 279.555 107.62C278.749 106.729 278.12 105.636 277.669 104.342C277.229 103.048 277.009 101.577 277.009 99.9292C277.009 97.7319 277.382 95.8643 278.126 94.3262C278.871 92.7759 279.933 91.5979 281.312 90.7922C282.704 89.9744 284.358 89.5654 286.274 89.5654C288.106 89.5654 289.705 89.9744 291.072 90.7922C292.451 91.6101 293.519 92.7942 294.276 94.3445C295.045 95.8826 295.43 97.7441 295.43 99.9292ZM280.159 99.9292C280.159 101.541 280.372 102.938 280.8 104.122C281.227 105.306 281.886 106.222 282.777 106.869C283.668 107.516 284.816 107.839 286.22 107.839C287.611 107.839 288.753 107.516 289.644 106.869C290.547 106.222 291.212 105.306 291.639 104.122C292.067 102.938 292.28 101.541 292.28 99.9292C292.28 98.3301 292.067 96.9507 291.639 95.791C291.212 94.6191 290.553 93.7158 289.662 93.0811C288.771 92.4463 287.617 92.1289 286.201 92.1289C284.114 92.1289 282.582 92.8186 281.605 94.198C280.641 95.5774 280.159 97.4878 280.159 99.9292ZM319.856 89.5654C322.358 89.5654 324.354 90.426 325.844 92.1472C327.333 93.8684 328.077 96.4563 328.077 99.9109C328.077 102.194 327.736 104.11 327.052 105.66C326.368 107.211 325.404 108.383 324.159 109.176C322.926 109.969 321.467 110.366 319.783 110.366C318.721 110.366 317.787 110.226 316.981 109.945C316.176 109.664 315.486 109.286 314.912 108.81C314.338 108.334 313.862 107.815 313.484 107.253H313.264C313.301 107.729 313.344 108.303 313.392 108.975C313.453 109.646 313.484 110.232 313.484 110.732V118.972H310.426V89.9316H312.935L313.337 92.8979H313.484C313.875 92.2876 314.351 91.7322 314.912 91.2317C315.474 90.719 316.157 90.3162 316.963 90.0232C317.781 89.718 318.745 89.5654 319.856 89.5654ZM319.325 92.1289C317.933 92.1289 316.81 92.3975 315.956 92.9346C315.114 93.4717 314.497 94.2773 314.107 95.3516C313.716 96.4136 313.508 97.7502 313.484 99.3616V99.9475C313.484 101.644 313.667 103.079 314.033 104.25C314.412 105.422 315.028 106.313 315.883 106.924C316.749 107.534 317.909 107.839 319.362 107.839C320.607 107.839 321.644 107.504 322.474 106.832C323.305 106.161 323.921 105.227 324.324 104.031C324.739 102.822 324.946 101.437 324.946 99.8743C324.946 97.5061 324.482 95.6262 323.555 94.2346C322.639 92.8308 321.229 92.1289 319.325 92.1289ZM340.895 89.6021C343.287 89.6021 345.064 90.1392 346.223 91.2134C347.383 92.2876 347.963 94.0027 347.963 96.3586V110H345.747L345.161 107.034H345.015C344.453 107.766 343.867 108.383 343.257 108.883C342.647 109.371 341.939 109.744 341.133 110C340.339 110.244 339.363 110.366 338.203 110.366C336.982 110.366 335.896 110.153 334.944 109.725C334.004 109.298 333.259 108.651 332.71 107.784C332.173 106.918 331.904 105.819 331.904 104.489C331.904 102.487 332.698 100.948 334.285 99.8743C335.872 98.8 338.289 98.2141 341.536 98.1165L344.996 97.97V96.7432C344.996 95.0098 344.624 93.7952 343.879 93.0994C343.135 92.4036 342.085 92.0557 340.73 92.0557C339.68 92.0557 338.679 92.2083 337.727 92.5134C336.775 92.8186 335.872 93.1787 335.017 93.5938L334.083 91.2866C334.987 90.8228 336.024 90.426 337.196 90.0964C338.368 89.7668 339.601 89.6021 340.895 89.6021ZM344.96 100.112L341.902 100.24C339.399 100.338 337.636 100.747 336.61 101.467C335.585 102.188 335.072 103.207 335.072 104.525C335.072 105.673 335.42 106.521 336.116 107.07C336.812 107.62 337.733 107.894 338.881 107.894C340.663 107.894 342.122 107.4 343.257 106.411C344.392 105.422 344.96 103.939 344.96 101.962V100.112ZM363.344 89.5654C363.746 89.5654 364.168 89.5898 364.607 89.6387C365.046 89.6753 365.437 89.7302 365.779 89.8035L365.394 92.6233C365.065 92.5378 364.699 92.4707 364.296 92.4219C363.893 92.373 363.514 92.3486 363.16 92.3486C362.355 92.3486 361.592 92.5134 360.872 92.843C360.164 93.1604 359.541 93.6243 359.004 94.2346C358.467 94.8328 358.046 95.5591 357.741 96.4136C357.435 97.2559 357.283 98.1958 357.283 99.2334V110H354.225V89.9316H356.752L357.081 93.6304H357.21C357.625 92.8857 358.125 92.2083 358.711 91.5979C359.297 90.9753 359.974 90.481 360.743 90.1147C361.525 89.7485 362.391 89.5654 363.344 89.5654ZM377.076 89.6021C379.469 89.6021 381.245 90.1392 382.405 91.2134C383.565 92.2876 384.144 94.0027 384.144 96.3586V110H381.929L381.343 107.034H381.196C380.635 107.766 380.049 108.383 379.439 108.883C378.828 109.371 378.12 109.744 377.315 110C376.521 110.244 375.544 110.366 374.385 110.366C373.164 110.366 372.078 110.153 371.126 109.725C370.186 109.298 369.441 108.651 368.892 107.784C368.355 106.918 368.086 105.819 368.086 104.489C368.086 102.487 368.879 100.948 370.466 99.8743C372.053 98.8 374.47 98.2141 377.717 98.1165L381.178 97.97V96.7432C381.178 95.0098 380.806 93.7952 380.061 93.0994C379.316 92.4036 378.267 92.0557 376.912 92.0557C375.862 92.0557 374.861 92.2083 373.909 92.5134C372.957 92.8186 372.053 93.1787 371.199 93.5938L370.265 91.2866C371.168 90.8228 372.206 90.426 373.378 90.0964C374.55 89.7668 375.783 89.6021 377.076 89.6021ZM381.141 100.112L378.084 100.24C375.581 100.338 373.817 100.747 372.792 101.467C371.766 102.188 371.254 103.207 371.254 104.525C371.254 105.673 371.602 106.521 372.297 107.07C372.993 107.62 373.915 107.894 375.062 107.894C376.845 107.894 378.303 107.4 379.439 106.411C380.574 105.422 381.141 103.939 381.141 101.962V100.112ZM412.05 95.9741H421.406V108.956C420.003 109.432 418.556 109.786 417.067 110.018C415.59 110.25 413.936 110.366 412.105 110.366C409.321 110.366 406.971 109.811 405.055 108.7C403.151 107.589 401.704 106.008 400.715 103.958C399.727 101.895 399.232 99.447 399.232 96.615C399.232 93.844 399.775 91.427 400.862 89.364C401.961 87.301 403.541 85.7019 405.604 84.5667C407.68 83.4192 410.17 82.8455 413.075 82.8455C414.564 82.8455 415.974 82.9858 417.305 83.2666C418.648 83.5352 419.893 83.9197 421.04 84.4202L419.85 87.1301C418.861 86.7029 417.769 86.3367 416.572 86.0315C415.388 85.7263 414.161 85.5737 412.892 85.5737C410.707 85.5737 408.833 86.0254 407.271 86.9287C405.72 87.832 404.53 89.1077 403.7 90.7556C402.882 92.4036 402.473 94.3567 402.473 96.615C402.473 98.8489 402.833 100.796 403.554 102.456C404.274 104.104 405.397 105.386 406.923 106.301C408.449 107.217 410.414 107.675 412.819 107.675C414.027 107.675 415.065 107.607 415.931 107.473C416.798 107.327 417.586 107.156 418.294 106.96V98.7573H412.05V95.9741ZM435.158 89.5654C436.867 89.5654 438.331 89.9438 439.552 90.7007C440.773 91.4575 441.707 92.5195 442.354 93.8867C443.001 95.2417 443.324 96.8286 443.324 98.6475V100.533H429.463C429.5 102.889 430.086 104.684 431.221 105.917C432.356 107.15 433.955 107.766 436.018 107.766C437.288 107.766 438.411 107.65 439.387 107.418C440.364 107.186 441.377 106.844 442.427 106.393V109.066C441.414 109.518 440.407 109.847 439.406 110.055C438.417 110.262 437.245 110.366 435.89 110.366C433.961 110.366 432.277 109.976 430.836 109.194C429.408 108.401 428.297 107.241 427.504 105.715C426.71 104.189 426.314 102.322 426.314 100.112C426.314 97.9517 426.674 96.084 427.394 94.5093C428.126 92.9224 429.152 91.7017 430.47 90.8472C431.801 89.9927 433.363 89.5654 435.158 89.5654ZM435.121 92.0557C433.497 92.0557 432.203 92.5867 431.239 93.6487C430.275 94.7107 429.701 96.1938 429.518 98.0981H440.138C440.126 96.9019 439.937 95.8521 439.57 94.9487C439.216 94.0332 438.673 93.3252 437.941 92.8247C437.208 92.312 436.268 92.0557 435.121 92.0557ZM457.606 89.5654C458.009 89.5654 458.43 89.5898 458.87 89.6387C459.309 89.6753 459.7 89.7302 460.042 89.8035L459.657 92.6233C459.327 92.5378 458.961 92.4707 458.558 92.4219C458.156 92.373 457.777 92.3486 457.423 92.3486C456.617 92.3486 455.855 92.5134 455.134 92.843C454.426 93.1604 453.804 93.6243 453.267 94.2346C452.73 94.8328 452.308 95.5591 452.003 96.4136C451.698 97.2559 451.545 98.1958 451.545 99.2334V110H448.488V89.9316H451.014L451.344 93.6304H451.472C451.887 92.8857 452.388 92.2083 452.974 91.5979C453.56 90.9753 454.237 90.481 455.006 90.1147C455.787 89.7485 456.654 89.5654 457.606 89.5654ZM471.339 89.6021C473.732 89.6021 475.508 90.1392 476.668 91.2134C477.827 92.2876 478.407 94.0027 478.407 96.3586V110H476.191L475.606 107.034H475.459C474.898 107.766 474.312 108.383 473.701 108.883C473.091 109.371 472.383 109.744 471.577 110C470.784 110.244 469.807 110.366 468.648 110.366C467.427 110.366 466.34 110.153 465.388 109.725C464.448 109.298 463.704 108.651 463.154 107.784C462.617 106.918 462.349 105.819 462.349 104.489C462.349 102.487 463.142 100.948 464.729 99.8743C466.316 98.8 468.733 98.2141 471.98 98.1165L475.441 97.97V96.7432C475.441 95.0098 475.068 93.7952 474.324 93.0994C473.579 92.4036 472.529 92.0557 471.174 92.0557C470.125 92.0557 469.124 92.2083 468.171 92.5134C467.219 92.8186 466.316 93.1787 465.461 93.5938L464.528 91.2866C465.431 90.8228 466.469 90.426 467.64 90.0964C468.812 89.7668 470.045 89.6021 471.339 89.6021ZM475.404 100.112L472.346 100.24C469.844 100.338 468.08 100.747 467.055 101.467C466.029 102.188 465.516 103.207 465.516 104.525C465.516 105.673 465.864 106.521 466.56 107.07C467.256 107.62 468.178 107.894 469.325 107.894C471.107 107.894 472.566 107.4 473.701 106.411C474.836 105.422 475.404 103.939 475.404 101.962V100.112ZM492.708 110.366C490.901 110.366 489.308 109.994 487.929 109.249C486.549 108.505 485.475 107.369 484.706 105.844C483.937 104.318 483.552 102.395 483.552 100.076C483.552 97.6465 483.955 95.6628 484.761 94.1248C485.579 92.5745 486.702 91.427 488.13 90.6824C489.558 89.9377 491.182 89.5654 493.001 89.5654C494.002 89.5654 494.966 89.6692 495.894 89.8767C496.834 90.072 497.603 90.3223 498.201 90.6274L497.285 93.1726C496.675 92.9285 495.967 92.7087 495.161 92.5134C494.368 92.3181 493.623 92.2205 492.927 92.2205C491.536 92.2205 490.376 92.5195 489.448 93.1177C488.533 93.7158 487.843 94.5947 487.379 95.7544C486.928 96.9141 486.702 98.3423 486.702 100.039C486.702 101.663 486.921 103.048 487.361 104.196C487.813 105.343 488.478 106.222 489.357 106.832C490.248 107.43 491.359 107.729 492.689 107.729C493.751 107.729 494.71 107.62 495.564 107.4C496.419 107.168 497.194 106.899 497.889 106.594V109.304C497.218 109.646 496.467 109.908 495.637 110.092C494.819 110.275 493.843 110.366 492.708 110.366ZM495.692 115.237C495.692 116.421 495.234 117.343 494.319 118.002C493.403 118.673 492.061 119.009 490.291 119.009C489.912 119.009 489.552 118.984 489.21 118.936C488.868 118.899 488.594 118.856 488.386 118.807V116.885C488.618 116.934 488.917 116.976 489.284 117.013C489.65 117.05 490.016 117.068 490.382 117.068C491.298 117.068 492 116.934 492.488 116.665C492.976 116.396 493.22 115.945 493.22 115.31C493.22 114.639 492.891 114.15 492.232 113.845C491.585 113.54 490.754 113.333 489.741 113.223L491.371 110H493.403L492.415 112.051C493.025 112.173 493.574 112.362 494.063 112.618C494.563 112.875 494.96 113.217 495.253 113.644C495.546 114.071 495.692 114.602 495.692 115.237ZM510.158 89.6021C512.55 89.6021 514.326 90.1392 515.486 91.2134C516.646 92.2876 517.225 94.0027 517.225 96.3586V110H515.01L514.424 107.034H514.277C513.716 107.766 513.13 108.383 512.52 108.883C511.909 109.371 511.201 109.744 510.396 110C509.602 110.244 508.626 110.366 507.466 110.366C506.245 110.366 505.159 110.153 504.207 109.725C503.267 109.298 502.522 108.651 501.973 107.784C501.436 106.918 501.167 105.819 501.167 104.489C501.167 102.487 501.961 100.948 503.547 99.8743C505.134 98.8 507.551 98.2141 510.798 98.1165L514.259 97.97V96.7432C514.259 95.0098 513.887 93.7952 513.142 93.0994C512.398 92.4036 511.348 92.0557 509.993 92.0557C508.943 92.0557 507.942 92.2083 506.99 92.5134C506.038 92.8186 505.134 93.1787 504.28 93.5938L503.346 91.2866C504.249 90.8228 505.287 90.426 506.459 90.0964C507.631 89.7668 508.864 89.6021 510.158 89.6021ZM514.222 100.112L511.165 100.24C508.662 100.338 506.898 100.747 505.873 101.467C504.847 102.188 504.335 103.207 504.335 104.525C504.335 105.673 504.683 106.521 505.378 107.07C506.074 107.62 506.996 107.894 508.143 107.894C509.926 107.894 511.384 107.4 512.52 106.411C513.655 105.422 514.222 103.939 514.222 101.962V100.112ZM502.943 87.2217C503.016 86.4893 503.157 85.8362 503.364 85.2625C503.572 84.6887 503.846 84.2004 504.188 83.7976C504.53 83.3948 504.933 83.0896 505.397 82.8821C505.873 82.6624 506.398 82.5525 506.971 82.5525C507.533 82.5525 508.07 82.6685 508.583 82.9004C509.096 83.1201 509.584 83.3765 510.048 83.6694C510.512 83.9502 510.957 84.2065 511.384 84.4385C511.824 84.6582 512.245 84.7681 512.648 84.7681C513.234 84.7681 513.685 84.5911 514.003 84.2371C514.332 83.8708 514.583 83.2971 514.753 82.5159H516.548C516.389 83.9441 515.968 85.0854 515.284 85.9399C514.601 86.7822 513.679 87.2034 512.52 87.2034C511.982 87.2034 511.464 87.0935 510.963 86.8738C510.463 86.6418 509.981 86.3855 509.517 86.1047C509.053 85.8118 508.595 85.5554 508.143 85.3357C507.704 85.1038 507.271 84.9878 506.843 84.9878C506.245 84.9878 505.787 85.1709 505.47 85.5371C505.153 85.8911 504.909 86.4526 504.738 87.2217H502.943ZM540.791 99.9292C540.791 101.577 540.577 103.048 540.15 104.342C539.723 105.636 539.107 106.729 538.301 107.62C537.495 108.511 536.519 109.194 535.371 109.67C534.236 110.134 532.948 110.366 531.508 110.366C530.165 110.366 528.932 110.134 527.809 109.67C526.698 109.194 525.734 108.511 524.916 107.62C524.11 106.729 523.482 105.636 523.03 104.342C522.59 103.048 522.371 101.577 522.371 99.9292C522.371 97.7319 522.743 95.8643 523.488 94.3262C524.232 92.7759 525.294 91.5979 526.674 90.7922C528.065 89.9744 529.719 89.5654 531.636 89.5654C533.467 89.5654 535.066 89.9744 536.433 90.7922C537.813 91.6101 538.881 92.7942 539.638 94.3445C540.407 95.8826 540.791 97.7441 540.791 99.9292ZM525.52 99.9292C525.52 101.541 525.734 102.938 526.161 104.122C526.588 105.306 527.247 106.222 528.138 106.869C529.03 107.516 530.177 107.839 531.581 107.839C532.972 107.839 534.114 107.516 535.005 106.869C535.908 106.222 536.574 105.306 537.001 104.122C537.428 102.938 537.642 101.541 537.642 99.9292C537.642 98.3301 537.428 96.9507 537.001 95.791C536.574 94.6191 535.914 93.7158 535.023 93.0811C534.132 92.4463 532.979 92.1289 531.563 92.1289C529.475 92.1289 527.943 92.8186 526.967 94.198C526.002 95.5774 525.52 97.4878 525.52 99.9292ZM573.036 110L569.74 101.504H559.01L555.732 110H552.583L563.057 83.1201H565.858L576.259 110H573.036ZM568.806 98.739L565.675 90.2979C565.602 90.0781 565.48 89.718 565.309 89.2175C565.15 88.717 564.985 88.1982 564.815 87.6611C564.644 87.124 564.503 86.6907 564.393 86.3611C564.271 86.8616 564.137 87.3621 563.991 87.8625C563.856 88.3508 563.722 88.8086 563.588 89.2358C563.453 89.6509 563.337 90.0049 563.24 90.2979L560.054 98.739H568.806ZM596.089 89.9316V110H593.599L593.159 107.18H592.994C592.579 107.876 592.042 108.462 591.383 108.938C590.724 109.414 589.979 109.768 589.149 110C588.331 110.244 587.459 110.366 586.531 110.366C584.944 110.366 583.613 110.11 582.539 109.597C581.465 109.084 580.653 108.291 580.104 107.217C579.567 106.143 579.298 104.763 579.298 103.079V89.9316H582.374V102.859C582.374 104.531 582.753 105.782 583.51 106.613C584.266 107.43 585.42 107.839 586.97 107.839C588.46 107.839 589.644 107.559 590.523 106.997C591.414 106.436 592.055 105.612 592.445 104.525C592.836 103.427 593.031 102.084 593.031 100.497V89.9316H596.089ZM608.998 107.876C609.498 107.876 610.011 107.833 610.536 107.748C611.061 107.662 611.488 107.559 611.818 107.437V109.799C611.464 109.957 610.969 110.092 610.335 110.201C609.712 110.311 609.102 110.366 608.503 110.366C607.441 110.366 606.477 110.183 605.61 109.817C604.744 109.438 604.048 108.804 603.523 107.913C603.01 107.021 602.754 105.789 602.754 104.214V92.312H599.898V90.8289L602.772 89.6387L603.981 85.2808H605.812V89.9316H611.69V92.312H605.812V104.122C605.812 105.38 606.099 106.32 606.672 106.942C607.258 107.565 608.034 107.876 608.998 107.876ZM633.186 99.9292C633.186 101.577 632.972 103.048 632.545 104.342C632.118 105.636 631.502 106.729 630.696 107.62C629.89 108.511 628.914 109.194 627.766 109.67C626.631 110.134 625.343 110.366 623.903 110.366C622.56 110.366 621.327 110.134 620.204 109.67C619.093 109.194 618.129 108.511 617.311 107.62C616.505 106.729 615.877 105.636 615.425 104.342C614.985 103.048 614.766 101.577 614.766 99.9292C614.766 97.7319 615.138 95.8643 615.883 94.3262C616.627 92.7759 617.689 91.5979 619.069 90.7922C620.46 89.9744 622.114 89.5654 624.031 89.5654C625.862 89.5654 627.461 89.9744 628.828 90.7922C630.208 91.6101 631.276 92.7942 632.033 94.3445C632.802 95.8826 633.186 97.7441 633.186 99.9292ZM617.915 99.9292C617.915 101.541 618.129 102.938 618.556 104.122C618.983 105.306 619.642 106.222 620.534 106.869C621.425 107.516 622.572 107.839 623.976 107.839C625.367 107.839 626.509 107.516 627.4 106.869C628.303 106.222 628.969 105.306 629.396 104.122C629.823 102.938 630.037 101.541 630.037 99.9292C630.037 98.3301 629.823 96.9507 629.396 95.791C628.969 94.6191 628.309 93.7158 627.418 93.0811C626.527 92.4463 625.374 92.1289 623.958 92.1289C621.87 92.1289 620.338 92.8186 619.362 94.198C618.397 95.5774 617.915 97.4878 617.915 99.9292ZM660.231 89.5654C662.44 89.5654 664.107 90.1453 665.23 91.3049C666.353 92.4524 666.914 94.3018 666.914 96.853V110H663.911V96.9995C663.911 95.376 663.557 94.1614 662.849 93.3557C662.153 92.5378 661.116 92.1289 659.736 92.1289C657.795 92.1289 656.386 92.6904 655.507 93.8135C654.628 94.9365 654.188 96.5906 654.188 98.7756V110H651.167V96.9995C651.167 95.9131 651.008 95.0098 650.691 94.2896C650.386 93.5693 649.922 93.0322 649.299 92.6782C648.689 92.312 647.914 92.1289 646.974 92.1289C645.643 92.1289 644.575 92.4036 643.77 92.9529C642.964 93.5022 642.378 94.3201 642.012 95.4065C641.658 96.4807 641.481 97.8052 641.481 99.3799V110H638.441V89.9316H640.895L641.353 92.7698H641.517C641.92 92.074 642.427 91.488 643.037 91.012C643.648 90.5359 644.331 90.1758 645.088 89.9316C645.845 89.6875 646.65 89.5654 647.505 89.5654C649.031 89.5654 650.306 89.8523 651.332 90.426C652.369 90.9875 653.12 91.8481 653.584 93.0078H653.749C654.408 91.8481 655.311 90.9875 656.459 90.426C657.606 89.8523 658.864 89.5654 660.231 89.5654ZM680.665 89.6021C683.058 89.6021 684.834 90.1392 685.994 91.2134C687.153 92.2876 687.733 94.0027 687.733 96.3586V110H685.518L684.932 107.034H684.785C684.224 107.766 683.638 108.383 683.027 108.883C682.417 109.371 681.709 109.744 680.903 110C680.11 110.244 679.133 110.366 677.974 110.366C676.753 110.366 675.667 110.153 674.714 109.725C673.774 109.298 673.03 108.651 672.481 107.784C671.943 106.918 671.675 105.819 671.675 104.489C671.675 102.487 672.468 100.948 674.055 99.8743C675.642 98.8 678.059 98.2141 681.306 98.1165L684.767 97.97V96.7432C684.767 95.0098 684.395 93.7952 683.65 93.0994C682.905 92.4036 681.856 92.0557 680.501 92.0557C679.451 92.0557 678.45 92.2083 677.498 92.5134C676.545 92.8186 675.642 93.1787 674.788 93.5938L673.854 91.2866C674.757 90.8228 675.795 90.426 676.967 90.0964C678.138 89.7668 679.371 89.6021 680.665 89.6021ZM684.73 100.112L681.672 100.24C679.17 100.338 677.406 100.747 676.381 101.467C675.355 102.188 674.843 103.207 674.843 104.525C674.843 105.673 675.19 106.521 675.886 107.07C676.582 107.62 677.504 107.894 678.651 107.894C680.433 107.894 681.892 107.4 683.027 106.411C684.163 105.422 684.73 103.939 684.73 101.962V100.112ZM700.477 107.876C700.978 107.876 701.491 107.833 702.015 107.748C702.54 107.662 702.968 107.559 703.297 107.437V109.799C702.943 109.957 702.449 110.092 701.814 110.201C701.191 110.311 700.581 110.366 699.983 110.366C698.921 110.366 697.957 110.183 697.09 109.817C696.223 109.438 695.527 108.804 695.003 107.913C694.49 107.021 694.233 105.789 694.233 104.214V92.312H691.377V90.8289L694.252 89.6387L695.46 85.2808H697.291V89.9316H703.169V92.312H697.291V104.122C697.291 105.38 697.578 106.32 698.152 106.942C698.738 107.565 699.513 107.876 700.477 107.876ZM710.402 89.9316V110H707.362V89.9316H710.402ZM708.919 82.4243C709.419 82.4243 709.846 82.5891 710.2 82.9187C710.566 83.2361 710.75 83.7366 710.75 84.4202C710.75 85.0916 710.566 85.592 710.2 85.9216C709.846 86.2512 709.419 86.416 708.919 86.416C708.394 86.416 707.954 86.2512 707.6 85.9216C707.258 85.592 707.087 85.0916 707.087 84.4202C707.087 83.7366 707.258 83.2361 707.6 82.9187C707.954 82.5891 708.394 82.4243 708.919 82.4243ZM729.738 110H715.107V107.986L726.112 92.312H715.803V89.9316H729.5V92.1838L718.641 107.638H729.738V110ZM741.932 89.6021C744.325 89.6021 746.101 90.1392 747.261 91.2134C748.42 92.2876 749 94.0027 749 96.3586V110H746.785L746.199 107.034H746.052C745.491 107.766 744.905 108.383 744.294 108.883C743.684 109.371 742.976 109.744 742.17 110C741.377 110.244 740.4 110.366 739.241 110.366C738.02 110.366 736.934 110.153 735.982 109.725C735.042 109.298 734.297 108.651 733.748 107.784C733.211 106.918 732.942 105.819 732.942 104.489C732.942 102.487 733.735 100.948 735.322 99.8743C736.909 98.8 739.326 98.2141 742.573 98.1165L746.034 97.97V96.7432C746.034 95.0098 745.662 93.7952 744.917 93.0994C744.172 92.4036 743.123 92.0557 741.768 92.0557C740.718 92.0557 739.717 92.2083 738.765 92.5134C737.813 92.8186 736.909 93.1787 736.055 93.5938L735.121 91.2866C736.024 90.8228 737.062 90.426 738.234 90.0964C739.406 89.7668 740.638 89.6021 741.932 89.6021ZM745.997 100.112L742.94 100.24C740.437 100.338 738.673 100.747 737.648 101.467C736.622 102.188 736.11 103.207 736.11 104.525C736.11 105.673 736.458 106.521 737.153 107.07C737.849 107.62 738.771 107.894 739.918 107.894C741.701 107.894 743.159 107.4 744.294 106.411C745.43 105.422 745.997 103.939 745.997 101.962V100.112ZM762.404 110.366C759.865 110.366 757.85 109.5 756.361 107.766C754.884 106.033 754.146 103.457 754.146 100.039C754.146 96.5845 754.902 93.9783 756.416 92.2205C757.93 90.4504 759.944 89.5654 762.459 89.5654C763.521 89.5654 764.448 89.7058 765.242 89.9866C766.035 90.2673 766.719 90.6458 767.293 91.1218C767.866 91.5857 768.348 92.1167 768.739 92.7148H768.959C768.91 92.3364 768.861 91.8176 768.812 91.1584C768.763 90.4993 768.739 89.9622 768.739 89.5471V81.5088H771.779V110H769.325L768.867 107.144H768.739C768.361 107.742 767.878 108.285 767.293 108.773C766.719 109.261 766.029 109.652 765.223 109.945C764.43 110.226 763.49 110.366 762.404 110.366ZM762.88 107.839C765.028 107.839 766.548 107.229 767.439 106.008C768.33 104.788 768.776 102.975 768.776 100.57V100.021C768.776 97.4695 768.348 95.5103 767.494 94.1431C766.652 92.7759 765.114 92.0923 762.88 92.0923C761.012 92.0923 759.614 92.8125 758.687 94.2529C757.759 95.6812 757.295 97.6343 757.295 100.112C757.295 102.578 757.753 104.482 758.668 105.825C759.596 107.168 761 107.839 762.88 107.839ZM785.731 89.6021C788.124 89.6021 789.9 90.1392 791.06 91.2134C792.219 92.2876 792.799 94.0027 792.799 96.3586V110H790.584L789.998 107.034H789.851C789.29 107.766 788.704 108.383 788.093 108.883C787.483 109.371 786.775 109.744 785.969 110C785.176 110.244 784.199 110.366 783.04 110.366C781.819 110.366 780.732 110.153 779.78 109.725C778.84 109.298 778.096 108.651 777.546 107.784C777.009 106.918 776.741 105.819 776.741 104.489C776.741 102.487 777.534 100.948 779.121 99.8743C780.708 98.8 783.125 98.2141 786.372 98.1165L789.833 97.97V96.7432C789.833 95.0098 789.461 93.7952 788.716 93.0994C787.971 92.4036 786.921 92.0557 785.566 92.0557C784.517 92.0557 783.516 92.2083 782.564 92.5134C781.611 92.8186 780.708 93.1787 779.854 93.5938L778.92 91.2866C779.823 90.8228 780.861 90.426 782.033 90.0964C783.204 89.7668 784.437 89.6021 785.731 89.6021ZM789.796 100.112L786.738 100.24C784.236 100.338 782.472 100.747 781.447 101.467C780.421 102.188 779.909 103.207 779.909 104.525C779.909 105.673 780.256 106.521 780.952 107.07C781.648 107.62 782.57 107.894 783.717 107.894C785.499 107.894 786.958 107.4 788.093 106.411C789.229 105.422 789.796 103.939 789.796 101.962V100.112ZM815.944 110.366C813.405 110.366 811.39 109.5 809.901 107.766C808.424 106.033 807.686 103.457 807.686 100.039C807.686 96.5845 808.442 93.9783 809.956 92.2205C811.47 90.4504 813.484 89.5654 815.999 89.5654C817.061 89.5654 817.988 89.7058 818.782 89.9866C819.575 90.2673 820.259 90.6458 820.833 91.1218C821.406 91.5857 821.888 92.1167 822.279 92.7148H822.499C822.45 92.3364 822.401 91.8176 822.352 91.1584C822.304 90.4993 822.279 89.9622 822.279 89.5471V81.5088H825.319V110H822.865L822.407 107.144H822.279C821.901 107.742 821.419 108.285 820.833 108.773C820.259 109.261 819.569 109.652 818.763 109.945C817.97 110.226 817.03 110.366 815.944 110.366ZM816.42 107.839C818.568 107.839 820.088 107.229 820.979 106.008C821.87 104.788 822.316 102.975 822.316 100.57V100.021C822.316 97.4695 821.888 95.5103 821.034 94.1431C820.192 92.7759 818.654 92.0923 816.42 92.0923C814.552 92.0923 813.154 92.8125 812.227 94.2529C811.299 95.6812 810.835 97.6343 810.835 100.112C810.835 102.578 811.293 104.482 812.208 105.825C813.136 107.168 814.54 107.839 816.42 107.839ZM839.491 89.5654C841.2 89.5654 842.665 89.9438 843.886 90.7007C845.106 91.4575 846.04 92.5195 846.687 93.8867C847.334 95.2417 847.658 96.8286 847.658 98.6475V100.533H833.796C833.833 102.889 834.419 104.684 835.554 105.917C836.69 107.15 838.289 107.766 840.352 107.766C841.621 107.766 842.744 107.65 843.721 107.418C844.697 107.186 845.711 106.844 846.76 106.393V109.066C845.747 109.518 844.74 109.847 843.739 110.055C842.75 110.262 841.578 110.366 840.223 110.366C838.295 110.366 836.61 109.976 835.17 109.194C833.742 108.401 832.631 107.241 831.837 105.715C831.044 104.189 830.647 102.322 830.647 100.112C830.647 97.9517 831.007 96.084 831.727 94.5093C832.46 92.9224 833.485 91.7017 834.804 90.8472C836.134 89.9927 837.697 89.5654 839.491 89.5654ZM839.454 92.0557C837.831 92.0557 836.537 92.5867 835.573 93.6487C834.608 94.7107 834.034 96.1938 833.851 98.0981H844.471C844.459 96.9019 844.27 95.8521 843.904 94.9487C843.55 94.0332 843.007 93.3252 842.274 92.8247C841.542 92.312 840.602 92.0557 839.454 92.0557ZM870.015 83.23C873.469 83.23 875.99 83.9075 877.577 85.2625C879.176 86.6052 879.976 88.5339 879.976 91.0486C879.976 92.1838 879.786 93.2642 879.408 94.2896C879.042 95.3027 878.444 96.2 877.614 96.9812C876.784 97.7502 875.691 98.3606 874.336 98.8123C872.993 99.2517 871.345 99.4714 869.392 99.4714H866.133V110H863.02V83.23H870.015ZM869.722 85.885H866.133V96.7981H869.044C870.753 96.7981 872.175 96.615 873.311 96.2488C874.458 95.8826 875.319 95.2905 875.892 94.4727C876.466 93.6426 876.753 92.5439 876.753 91.1768C876.753 89.3945 876.185 88.0701 875.05 87.2034C873.915 86.3245 872.139 85.885 869.722 85.885ZM894.24 89.5654C894.642 89.5654 895.064 89.5898 895.503 89.6387C895.942 89.6753 896.333 89.7302 896.675 89.8035L896.29 92.6233C895.961 92.5378 895.595 92.4707 895.192 92.4219C894.789 92.373 894.41 92.3486 894.056 92.3486C893.251 92.3486 892.488 92.5134 891.768 92.843C891.06 93.1604 890.437 93.6243 889.9 94.2346C889.363 94.8328 888.942 95.5591 888.637 96.4136C888.331 97.2559 888.179 98.1958 888.179 99.2334V110H885.121V89.9316H887.648L887.977 93.6304H888.106C888.521 92.8857 889.021 92.2083 889.607 91.5979C890.193 90.9753 890.87 90.481 891.639 90.1147C892.421 89.7485 893.287 89.5654 894.24 89.5654ZM917.769 99.9292C917.769 101.577 917.555 103.048 917.128 104.342C916.701 105.636 916.084 106.729 915.278 107.62C914.473 108.511 913.496 109.194 912.349 109.67C911.213 110.134 909.926 110.366 908.485 110.366C907.142 110.366 905.909 110.134 904.786 109.67C903.676 109.194 902.711 108.511 901.893 107.62C901.088 106.729 900.459 105.636 900.007 104.342C899.568 103.048 899.348 101.577 899.348 99.9292C899.348 97.7319 899.721 95.8643 900.465 94.3262C901.21 92.7759 902.272 91.5979 903.651 90.7922C905.043 89.9744 906.697 89.5654 908.613 89.5654C910.444 89.5654 912.044 89.9744 913.411 90.7922C914.79 91.6101 915.858 92.7942 916.615 94.3445C917.384 95.8826 917.769 97.7441 917.769 99.9292ZM902.498 99.9292C902.498 101.541 902.711 102.938 903.138 104.122C903.566 105.306 904.225 106.222 905.116 106.869C906.007 107.516 907.155 107.839 908.558 107.839C909.95 107.839 911.091 107.516 911.982 106.869C912.886 106.222 913.551 105.306 913.978 104.122C914.406 102.938 914.619 101.541 914.619 99.9292C914.619 98.3301 914.406 96.9507 913.978 95.791C913.551 94.6191 912.892 93.7158 912.001 93.0811C911.11 92.4463 909.956 92.1289 908.54 92.1289C906.453 92.1289 904.921 92.8186 903.944 94.198C902.98 95.5774 902.498 97.4878 902.498 99.9292ZM920.607 119.009C919.984 119.009 919.441 118.96 918.977 118.862C918.513 118.777 918.11 118.673 917.769 118.551V116.079C918.147 116.201 918.532 116.293 918.922 116.354C919.313 116.427 919.752 116.464 920.241 116.464C921.071 116.464 921.742 116.232 922.255 115.768C922.767 115.304 923.024 114.462 923.024 113.241V89.9316H926.063V113.168C926.063 114.388 925.868 115.432 925.477 116.299C925.087 117.178 924.489 117.849 923.683 118.313C922.877 118.777 921.852 119.009 920.607 119.009ZM922.749 84.4202C922.749 83.7366 922.92 83.2361 923.262 82.9187C923.616 82.5891 924.055 82.4243 924.58 82.4243C925.081 82.4243 925.508 82.5891 925.862 82.9187C926.228 83.2361 926.411 83.7366 926.411 84.4202C926.411 85.0916 926.228 85.592 925.862 85.9216C925.508 86.2512 925.081 86.416 924.58 86.416C924.055 86.416 923.616 86.2512 923.262 85.9216C922.92 85.592 922.749 85.0916 922.749 84.4202ZM940.236 89.5654C941.945 89.5654 943.409 89.9438 944.63 90.7007C945.851 91.4575 946.785 92.5195 947.432 93.8867C948.079 95.2417 948.402 96.8286 948.402 98.6475V100.533H934.541C934.578 102.889 935.164 104.684 936.299 105.917C937.434 107.15 939.033 107.766 941.096 107.766C942.366 107.766 943.489 107.65 944.465 107.418C945.442 107.186 946.455 106.844 947.505 106.393V109.066C946.492 109.518 945.485 109.847 944.484 110.055C943.495 110.262 942.323 110.366 940.968 110.366C939.039 110.366 937.355 109.976 935.914 109.194C934.486 108.401 933.375 107.241 932.582 105.715C931.788 104.189 931.392 102.322 931.392 100.112C931.392 97.9517 931.752 96.084 932.472 94.5093C933.204 92.9224 934.23 91.7017 935.548 90.8472C936.879 89.9927 938.441 89.5654 940.236 89.5654ZM940.199 92.0557C938.576 92.0557 937.282 92.5867 936.317 93.6487C935.353 94.7107 934.779 96.1938 934.596 98.0981H945.216C945.204 96.9019 945.015 95.8521 944.648 94.9487C944.294 94.0332 943.751 93.3252 943.019 92.8247C942.286 92.312 941.346 92.0557 940.199 92.0557ZM960.048 107.876C960.548 107.876 961.061 107.833 961.586 107.748C962.111 107.662 962.538 107.559 962.867 107.437V109.799C962.513 109.957 962.019 110.092 961.384 110.201C960.762 110.311 960.151 110.366 959.553 110.366C958.491 110.366 957.527 110.183 956.66 109.817C955.794 109.438 955.098 108.804 954.573 107.913C954.06 107.021 953.804 105.789 953.804 104.214V92.312H950.947V90.8289L953.822 89.6387L955.031 85.2808H956.862V89.9316H962.739V92.312H956.862V104.122C956.862 105.38 957.148 106.32 957.722 106.942C958.308 107.565 959.083 107.876 960.048 107.876ZM984.236 99.9292C984.236 101.577 984.022 103.048 983.595 104.342C983.168 105.636 982.551 106.729 981.746 107.62C980.94 108.511 979.963 109.194 978.816 109.67C977.681 110.134 976.393 110.366 974.952 110.366C973.61 110.366 972.377 110.134 971.254 109.67C970.143 109.194 969.179 108.511 968.361 107.62C967.555 106.729 966.926 105.636 966.475 104.342C966.035 103.048 965.815 101.577 965.815 99.9292C965.815 97.7319 966.188 95.8643 966.932 94.3262C967.677 92.7759 968.739 91.5979 970.118 90.7922C971.51 89.9744 973.164 89.5654 975.081 89.5654C976.912 89.5654 978.511 89.9744 979.878 90.7922C981.257 91.6101 982.326 92.7942 983.082 94.3445C983.851 95.8826 984.236 97.7441 984.236 99.9292ZM968.965 99.9292C968.965 101.541 969.179 102.938 969.606 104.122C970.033 105.306 970.692 106.222 971.583 106.869C972.474 107.516 973.622 107.839 975.026 107.839C976.417 107.839 977.559 107.516 978.45 106.869C979.353 106.222 980.018 105.306 980.446 104.122C980.873 102.938 981.086 101.541 981.086 99.9292C981.086 98.3301 980.873 96.9507 980.446 95.791C980.018 94.6191 979.359 93.7158 978.468 93.0811C977.577 92.4463 976.423 92.1289 975.007 92.1289C972.92 92.1289 971.388 92.8186 970.411 94.198C969.447 95.5774 968.965 97.4878 968.965 99.9292ZM1002.47 104.507C1002.47 105.789 1002.15 106.869 1001.5 107.748C1000.87 108.615 999.952 109.268 998.756 109.707C997.572 110.146 996.156 110.366 994.508 110.366C993.104 110.366 991.89 110.256 990.864 110.037C989.839 109.817 988.942 109.506 988.173 109.103V106.301C988.991 106.704 989.967 107.07 991.102 107.4C992.238 107.729 993.397 107.894 994.581 107.894C996.315 107.894 997.572 107.614 998.353 107.052C999.135 106.49 999.525 105.728 999.525 104.763C999.525 104.214 999.367 103.732 999.049 103.317C998.744 102.889 998.225 102.48 997.493 102.09C996.76 101.687 995.747 101.248 994.453 100.771C993.171 100.283 992.061 99.801 991.121 99.325C990.193 98.8367 989.473 98.2446 988.96 97.5488C988.46 96.853 988.209 95.9497 988.209 94.8389C988.209 93.1421 988.893 91.842 990.26 90.9387C991.639 90.0232 993.446 89.5654 995.68 89.5654C996.888 89.5654 998.018 89.6875 999.067 89.9316C1000.13 90.1636 1001.12 90.481 1002.03 90.8838L1001.01 93.3191C1000.18 92.9651 999.293 92.666 998.353 92.4219C997.413 92.1777 996.455 92.0557 995.479 92.0557C994.075 92.0557 992.994 92.2876 992.238 92.7515C991.493 93.2153 991.121 93.8501 991.121 94.6558C991.121 95.2783 991.292 95.791 991.633 96.1938C991.987 96.5967 992.549 96.9751 993.318 97.3291C994.087 97.6831 995.1 98.0981 996.357 98.5742C997.615 99.0381 998.701 99.5203 999.617 100.021C1000.53 100.509 1001.23 101.107 1001.72 101.815C1002.22 102.511 1002.47 103.408 1002.47 104.507ZM1024.56 83.23C1028.01 83.23 1030.53 83.9075 1032.12 85.2625C1033.72 86.6052 1034.52 88.5339 1034.52 91.0486C1034.52 92.1838 1034.33 93.2642 1033.95 94.2896C1033.58 95.3027 1032.98 96.2 1032.15 96.9812C1031.32 97.7502 1030.23 98.3606 1028.88 98.8123C1027.53 99.2517 1025.89 99.4714 1023.93 99.4714H1020.67V110H1017.56V83.23H1024.56ZM1024.26 85.885H1020.67V96.7981H1023.59C1025.29 96.7981 1026.72 96.615 1027.85 96.2488C1029 95.8826 1029.86 95.2905 1030.43 94.4727C1031.01 93.6426 1031.29 92.5439 1031.29 91.1768C1031.29 89.3945 1030.73 88.0701 1029.59 87.2034C1028.46 86.3245 1026.68 85.885 1024.26 85.885ZM1047.39 89.5654C1049.1 89.5654 1050.56 89.9438 1051.78 90.7007C1053 91.4575 1053.94 92.5195 1054.59 93.8867C1055.23 95.2417 1055.56 96.8286 1055.56 98.6475V100.533H1041.69C1041.73 102.889 1042.32 104.684 1043.45 105.917C1044.59 107.15 1046.19 107.766 1048.25 107.766C1049.52 107.766 1050.64 107.65 1051.62 107.418C1052.6 107.186 1053.61 106.844 1054.66 106.393V109.066C1053.65 109.518 1052.64 109.847 1051.64 110.055C1050.65 110.262 1049.48 110.366 1048.12 110.366C1046.19 110.366 1044.51 109.976 1043.07 109.194C1041.64 108.401 1040.53 107.241 1039.74 105.715C1038.94 104.189 1038.54 102.322 1038.54 100.112C1038.54 97.9517 1038.91 96.084 1039.63 94.5093C1040.36 92.9224 1041.38 91.7017 1042.7 90.8472C1044.03 89.9927 1045.59 89.5654 1047.39 89.5654ZM1047.35 92.0557C1045.73 92.0557 1044.43 92.5867 1043.47 93.6487C1042.51 94.7107 1041.93 96.1938 1041.75 98.0981H1052.37C1052.36 96.9019 1052.17 95.8521 1051.8 94.9487C1051.45 94.0332 1050.9 93.3252 1050.17 92.8247C1049.44 92.312 1048.5 92.0557 1047.35 92.0557ZM1067.86 110.366C1065.32 110.366 1063.31 109.5 1061.82 107.766C1060.34 106.033 1059.6 103.457 1059.6 100.039C1059.6 96.5845 1060.36 93.9783 1061.87 92.2205C1063.39 90.4504 1065.4 89.5654 1067.92 89.5654C1068.98 89.5654 1069.9 89.7058 1070.7 89.9866C1071.49 90.2673 1072.18 90.6458 1072.75 91.1218C1073.32 91.5857 1073.8 92.1167 1074.2 92.7148H1074.42C1074.37 92.3364 1074.32 91.8176 1074.27 91.1584C1074.22 90.4993 1074.2 89.9622 1074.2 89.5471V81.5088H1077.24V110H1074.78L1074.32 107.144H1074.2C1073.82 107.742 1073.34 108.285 1072.75 108.773C1072.18 109.261 1071.49 109.652 1070.68 109.945C1069.89 110.226 1068.95 110.366 1067.86 110.366ZM1068.34 107.839C1070.48 107.839 1072 107.229 1072.9 106.008C1073.79 104.788 1074.23 102.975 1074.23 100.57V100.021C1074.23 97.4695 1073.8 95.5103 1072.95 94.1431C1072.11 92.7759 1070.57 92.0923 1068.34 92.0923C1066.47 92.0923 1065.07 92.8125 1064.14 94.2529C1063.22 95.6812 1062.75 97.6343 1062.75 100.112C1062.75 102.578 1063.21 104.482 1064.12 105.825C1065.05 107.168 1066.46 107.839 1068.34 107.839ZM1091.19 89.6021C1093.58 89.6021 1095.36 90.1392 1096.52 91.2134C1097.68 92.2876 1098.26 94.0027 1098.26 96.3586V110H1096.04L1095.45 107.034H1095.31C1094.75 107.766 1094.16 108.383 1093.55 108.883C1092.94 109.371 1092.23 109.744 1091.43 110C1090.63 110.244 1089.66 110.366 1088.5 110.366C1087.28 110.366 1086.19 110.153 1085.24 109.725C1084.3 109.298 1083.55 108.651 1083 107.784C1082.47 106.918 1082.2 105.819 1082.2 104.489C1082.2 102.487 1082.99 100.948 1084.58 99.8743C1086.16 98.8 1088.58 98.2141 1091.83 98.1165L1095.29 97.97V96.7432C1095.29 95.0098 1094.92 93.7952 1094.17 93.0994C1093.43 92.4036 1092.38 92.0557 1091.02 92.0557C1089.97 92.0557 1088.97 92.2083 1088.02 92.5134C1087.07 92.8186 1086.16 93.1787 1085.31 93.5938L1084.38 91.2866C1085.28 90.8228 1086.32 90.426 1087.49 90.0964C1088.66 89.7668 1089.89 89.6021 1091.19 89.6021ZM1095.25 100.112L1092.19 100.24C1089.69 100.338 1087.93 100.747 1086.9 101.467C1085.88 102.188 1085.37 103.207 1085.37 104.525C1085.37 105.673 1085.71 106.521 1086.41 107.07C1087.1 107.62 1088.03 107.894 1089.17 107.894C1090.96 107.894 1092.41 107.4 1093.55 106.411C1094.69 105.422 1095.25 103.939 1095.25 101.962V100.112ZM1110.12 119.009C1107.48 119.009 1105.45 118.514 1104.02 117.526C1102.6 116.549 1101.88 115.176 1101.88 113.406C1101.88 112.148 1102.28 111.074 1103.07 110.183C1103.88 109.292 1104.99 108.7 1106.4 108.407C1105.88 108.163 1105.43 107.797 1105.05 107.308C1104.68 106.82 1104.5 106.259 1104.5 105.624C1104.5 104.891 1104.7 104.25 1105.1 103.701C1105.52 103.14 1106.15 102.603 1106.99 102.09C1105.94 101.663 1105.09 100.942 1104.43 99.9292C1103.78 98.9038 1103.46 97.7136 1103.46 96.3586C1103.46 94.9182 1103.75 93.6914 1104.35 92.6782C1104.95 91.6528 1105.82 90.8716 1106.95 90.3345C1108.09 89.7974 1109.46 89.5288 1111.07 89.5288C1111.43 89.5288 1111.78 89.5471 1112.14 89.5837C1112.5 89.6082 1112.85 89.6509 1113.18 89.7119C1113.51 89.7607 1113.8 89.8218 1114.04 89.895H1120.92V91.8542L1117.23 92.312C1117.59 92.7881 1117.9 93.3618 1118.14 94.0332C1118.39 94.7046 1118.51 95.4492 1118.51 96.2671C1118.51 98.269 1117.83 99.8621 1116.47 101.046C1115.12 102.218 1113.26 102.804 1110.89 102.804C1110.33 102.804 1109.75 102.755 1109.17 102.657C1108.57 102.987 1108.11 103.353 1107.8 103.756C1107.49 104.159 1107.34 104.623 1107.34 105.148C1107.34 105.538 1107.45 105.85 1107.69 106.082C1107.93 106.313 1108.28 106.484 1108.73 106.594C1109.18 106.692 1109.72 106.741 1110.36 106.741H1113.89C1116.08 106.741 1117.75 107.198 1118.91 108.114C1120.08 109.03 1120.67 110.366 1120.67 112.124C1120.67 114.346 1119.76 116.049 1117.96 117.233C1116.15 118.417 1113.54 119.009 1110.12 119.009ZM1110.21 116.628C1111.87 116.628 1113.25 116.458 1114.33 116.116C1115.43 115.786 1116.25 115.304 1116.79 114.669C1117.34 114.047 1117.61 113.302 1117.61 112.435C1117.61 111.63 1117.43 111.019 1117.06 110.604C1116.69 110.201 1116.16 109.933 1115.45 109.799C1114.74 109.652 1113.87 109.579 1112.85 109.579H1109.37C1108.47 109.579 1107.68 109.719 1107.01 110C1106.34 110.281 1105.82 110.696 1105.45 111.245C1105.1 111.794 1104.92 112.478 1104.92 113.296C1104.92 114.382 1105.38 115.206 1106.29 115.768C1107.21 116.342 1108.52 116.628 1110.21 116.628ZM1111 100.588C1112.45 100.588 1113.54 100.222 1114.28 99.4897C1115.01 98.7573 1115.38 97.6892 1115.38 96.2854C1115.38 94.7839 1115 93.6609 1114.26 92.9163C1113.51 92.1594 1112.42 91.781 1110.96 91.781C1109.57 91.781 1108.5 92.1716 1107.74 92.9529C1107 93.7219 1106.62 94.8511 1106.62 96.3403C1106.62 97.7075 1107 98.7573 1107.76 99.4897C1108.52 100.222 1109.6 100.588 1111 100.588ZM1142.18 99.9292C1142.18 101.577 1141.97 103.048 1141.54 104.342C1141.11 105.636 1140.5 106.729 1139.69 107.62C1138.89 108.511 1137.91 109.194 1136.76 109.67C1135.63 110.134 1134.34 110.366 1132.9 110.366C1131.56 110.366 1130.32 110.134 1129.2 109.67C1128.09 109.194 1127.13 108.511 1126.31 107.62C1125.5 106.729 1124.87 105.636 1124.42 104.342C1123.98 103.048 1123.76 101.577 1123.76 99.9292C1123.76 97.7319 1124.13 95.8643 1124.88 94.3262C1125.62 92.7759 1126.69 91.5979 1128.07 90.7922C1129.46 89.9744 1131.11 89.5654 1133.03 89.5654C1134.86 89.5654 1136.46 89.9744 1137.82 90.7922C1139.2 91.6101 1140.27 92.7942 1141.03 94.3445C1141.8 95.8826 1142.18 97.7441 1142.18 99.9292ZM1126.91 99.9292C1126.91 101.541 1127.13 102.938 1127.55 104.122C1127.98 105.306 1128.64 106.222 1129.53 106.869C1130.42 107.516 1131.57 107.839 1132.97 107.839C1134.36 107.839 1135.51 107.516 1136.4 106.869C1137.3 106.222 1137.97 105.306 1138.39 104.122C1138.82 102.938 1139.03 101.541 1139.03 99.9292C1139.03 98.3301 1138.82 96.9507 1138.39 95.791C1137.97 94.6191 1137.31 93.7158 1136.41 93.0811C1135.52 92.4463 1134.37 92.1289 1132.95 92.1289C1130.87 92.1289 1129.33 92.8186 1128.36 94.198C1127.39 95.5774 1126.91 97.4878 1126.91 99.9292ZM1138.28 81.2708V81.637C1138.04 81.991 1137.7 82.4182 1137.28 82.9187C1136.86 83.407 1136.4 83.9258 1135.88 84.4751C1135.37 85.0122 1134.85 85.5249 1134.33 86.0132C1133.81 86.5015 1133.34 86.9226 1132.9 87.2766H1130.87V86.8372C1131.26 86.3733 1131.68 85.8179 1132.15 85.1709C1132.61 84.5117 1133.06 83.8403 1133.5 83.1567C1133.94 82.4609 1134.31 81.8323 1134.6 81.2708H1138.28ZM1153.04 119.009C1150.4 119.009 1148.37 118.514 1146.94 117.526C1145.52 116.549 1144.8 115.176 1144.8 113.406C1144.8 112.148 1145.2 111.074 1145.99 110.183C1146.8 109.292 1147.91 108.7 1149.32 108.407C1148.8 108.163 1148.35 107.797 1147.97 107.308C1147.6 106.82 1147.42 106.259 1147.42 105.624C1147.42 104.891 1147.62 104.25 1148.02 103.701C1148.44 103.14 1149.07 102.603 1149.91 102.09C1148.86 101.663 1148.01 100.942 1147.35 99.9292C1146.7 98.9038 1146.38 97.7136 1146.38 96.3586C1146.38 94.9182 1146.67 93.6914 1147.27 92.6782C1147.87 91.6528 1148.74 90.8716 1149.87 90.3345C1151.01 89.7974 1152.38 89.5288 1153.99 89.5288C1154.35 89.5288 1154.7 89.5471 1155.05 89.5837C1155.42 89.6082 1155.77 89.6509 1156.1 89.7119C1156.43 89.7607 1156.72 89.8218 1156.96 89.895H1163.84V91.8542L1160.15 92.312C1160.51 92.7881 1160.82 93.3618 1161.06 94.0332C1161.3 94.7046 1161.43 95.4492 1161.43 96.2671C1161.43 98.269 1160.75 99.8621 1159.39 101.046C1158.04 102.218 1156.18 102.804 1153.81 102.804C1153.25 102.804 1152.67 102.755 1152.09 102.657C1151.49 102.987 1151.03 103.353 1150.72 103.756C1150.41 104.159 1150.26 104.623 1150.26 105.148C1150.26 105.538 1150.37 105.85 1150.61 106.082C1150.85 106.313 1151.2 106.484 1151.65 106.594C1152.1 106.692 1152.64 106.741 1153.28 106.741H1156.81C1159 106.741 1160.67 107.198 1161.83 108.114C1163 109.03 1163.59 110.366 1163.59 112.124C1163.59 114.346 1162.68 116.049 1160.88 117.233C1159.07 118.417 1156.46 119.009 1153.04 119.009ZM1153.13 116.628C1154.79 116.628 1156.17 116.458 1157.25 116.116C1158.35 115.786 1159.17 115.304 1159.71 114.669C1160.26 114.047 1160.53 113.302 1160.53 112.435C1160.53 111.63 1160.35 111.019 1159.98 110.604C1159.61 110.201 1159.08 109.933 1158.37 109.799C1157.66 109.652 1156.79 109.579 1155.77 109.579H1152.29C1151.39 109.579 1150.6 109.719 1149.93 110C1149.26 110.281 1148.74 110.696 1148.37 111.245C1148.02 111.794 1147.84 112.478 1147.84 113.296C1147.84 114.382 1148.3 115.206 1149.21 115.768C1150.13 116.342 1151.44 116.628 1153.13 116.628ZM1153.92 100.588C1155.37 100.588 1156.46 100.222 1157.2 99.4897C1157.93 98.7573 1158.3 97.6892 1158.3 96.2854C1158.3 94.7839 1157.92 93.6609 1157.18 92.9163C1156.43 92.1594 1155.34 91.781 1153.88 91.781C1152.49 91.781 1151.42 92.1716 1150.66 92.9529C1149.92 93.7219 1149.54 94.8511 1149.54 96.3403C1149.54 97.7075 1149.92 98.7573 1150.68 99.4897C1151.44 100.222 1152.52 100.588 1153.92 100.588ZM1170.84 89.9316V110H1167.8V89.9316H1170.84ZM1169.36 82.4243C1169.86 82.4243 1170.28 82.5891 1170.64 82.9187C1171 83.2361 1171.19 83.7366 1171.19 84.4202C1171.19 85.0916 1171 85.592 1170.64 85.9216C1170.28 86.2512 1169.86 86.416 1169.36 86.416C1168.83 86.416 1168.39 86.2512 1168.04 85.9216C1167.7 85.592 1167.52 85.0916 1167.52 84.4202C1167.52 83.7366 1167.7 83.2361 1168.04 82.9187C1168.39 82.5891 1168.83 82.4243 1169.36 82.4243ZM1185.32 110.366C1183.52 110.366 1181.92 109.994 1180.54 109.249C1179.16 108.505 1178.09 107.369 1177.32 105.844C1176.55 104.318 1176.17 102.395 1176.17 100.076C1176.17 97.6465 1176.57 95.6628 1177.38 94.1248C1178.19 92.5745 1179.32 91.427 1180.74 90.6824C1182.17 89.9377 1183.8 89.5654 1185.62 89.5654C1186.62 89.5654 1187.58 89.6692 1188.51 89.8767C1189.45 90.072 1190.22 90.3223 1190.82 90.6274L1189.9 93.1726C1189.29 92.9285 1188.58 92.7087 1187.78 92.5134C1186.98 92.3181 1186.24 92.2205 1185.54 92.2205C1184.15 92.2205 1182.99 92.5195 1182.06 93.1177C1181.15 93.7158 1180.46 94.5947 1179.99 95.7544C1179.54 96.9141 1179.32 98.3423 1179.32 100.039C1179.32 101.663 1179.54 103.048 1179.98 104.196C1180.43 105.343 1181.09 106.222 1181.97 106.832C1182.86 107.43 1183.97 107.729 1185.3 107.729C1186.37 107.729 1187.32 107.62 1188.18 107.4C1189.03 107.168 1189.81 106.899 1190.5 106.594V109.304C1189.83 109.646 1189.08 109.908 1188.25 110.092C1187.43 110.275 1186.46 110.366 1185.32 110.366ZM1212.57 99.9292C1212.57 101.577 1212.35 103.048 1211.93 104.342C1211.5 105.636 1210.88 106.729 1210.08 107.62C1209.27 108.511 1208.3 109.194 1207.15 109.67C1206.01 110.134 1204.73 110.366 1203.28 110.366C1201.94 110.366 1200.71 110.134 1199.59 109.67C1198.48 109.194 1197.51 108.511 1196.69 107.62C1195.89 106.729 1195.26 105.636 1194.81 104.342C1194.37 103.048 1194.15 101.577 1194.15 99.9292C1194.15 97.7319 1194.52 95.8643 1195.26 94.3262C1196.01 92.7759 1197.07 91.5979 1198.45 90.7922C1199.84 89.9744 1201.5 89.5654 1203.41 89.5654C1205.24 89.5654 1206.84 89.9744 1208.21 90.7922C1209.59 91.6101 1210.66 92.7942 1211.41 94.3445C1212.18 95.8826 1212.57 97.7441 1212.57 99.9292ZM1197.3 99.9292C1197.3 101.541 1197.51 102.938 1197.94 104.122C1198.37 105.306 1199.02 106.222 1199.92 106.869C1200.81 107.516 1201.95 107.839 1203.36 107.839C1204.75 107.839 1205.89 107.516 1206.78 106.869C1207.69 106.222 1208.35 105.306 1208.78 104.122C1209.21 102.938 1209.42 101.541 1209.42 99.9292C1209.42 98.3301 1209.21 96.9507 1208.78 95.791C1208.35 94.6191 1207.69 93.7158 1206.8 93.0811C1205.91 92.4463 1204.76 92.1289 1203.34 92.1289C1201.25 92.1289 1199.72 92.8186 1198.74 94.198C1197.78 95.5774 1197.3 97.4878 1197.3 99.9292ZM1230.81 104.507C1230.81 105.789 1230.48 106.869 1229.84 107.748C1229.2 108.615 1228.28 109.268 1227.09 109.707C1225.9 110.146 1224.49 110.366 1222.84 110.366C1221.44 110.366 1220.22 110.256 1219.2 110.037C1218.17 109.817 1217.27 109.506 1216.51 109.103V106.301C1217.32 106.704 1218.3 107.07 1219.43 107.4C1220.57 107.729 1221.73 107.894 1222.91 107.894C1224.65 107.894 1225.9 107.614 1226.69 107.052C1227.47 106.49 1227.86 105.728 1227.86 104.763C1227.86 104.214 1227.7 103.732 1227.38 103.317C1227.08 102.889 1226.56 102.48 1225.83 102.09C1225.09 101.687 1224.08 101.248 1222.79 100.771C1221.5 100.283 1220.39 99.801 1219.45 99.325C1218.53 98.8367 1217.81 98.2446 1217.29 97.5488C1216.79 96.853 1216.54 95.9497 1216.54 94.8389C1216.54 93.1421 1217.23 91.842 1218.59 90.9387C1219.97 90.0232 1221.78 89.5654 1224.01 89.5654C1225.22 89.5654 1226.35 89.6875 1227.4 89.9316C1228.46 90.1636 1229.45 90.481 1230.37 90.8838L1229.34 93.3191C1228.51 92.9651 1227.63 92.666 1226.69 92.4219C1225.75 92.1777 1224.79 92.0557 1223.81 92.0557C1222.41 92.0557 1221.33 92.2876 1220.57 92.7515C1219.83 93.2153 1219.45 93.8501 1219.45 94.6558C1219.45 95.2783 1219.62 95.791 1219.97 96.1938C1220.32 96.5967 1220.88 96.9751 1221.65 97.3291C1222.42 97.6831 1223.43 98.0981 1224.69 98.5742C1225.95 99.0381 1227.03 99.5203 1227.95 100.021C1228.86 100.509 1229.57 101.107 1230.05 101.815C1230.56 102.511 1230.81 103.408 1230.81 104.507ZM1252.58 110.366C1250.04 110.366 1248.02 109.5 1246.53 107.766C1245.06 106.033 1244.32 103.457 1244.32 100.039C1244.32 96.5845 1245.08 93.9783 1246.59 92.2205C1248.1 90.4504 1250.12 89.5654 1252.63 89.5654C1253.69 89.5654 1254.62 89.7058 1255.42 89.9866C1256.21 90.2673 1256.89 90.6458 1257.47 91.1218C1258.04 91.5857 1258.52 92.1167 1258.91 92.7148H1259.13C1259.08 92.3364 1259.03 91.8176 1258.99 91.1584C1258.94 90.4993 1258.91 89.9622 1258.91 89.5471V81.5088H1261.95V110H1259.5L1259.04 107.144H1258.91C1258.53 107.742 1258.05 108.285 1257.47 108.773C1256.89 109.261 1256.2 109.652 1255.4 109.945C1254.6 110.226 1253.66 110.366 1252.58 110.366ZM1253.05 107.839C1255.2 107.839 1256.72 107.229 1257.61 106.008C1258.5 104.788 1258.95 102.975 1258.95 100.57V100.021C1258.95 97.4695 1258.52 95.5103 1257.67 94.1431C1256.83 92.7759 1255.29 92.0923 1253.05 92.0923C1251.19 92.0923 1249.79 92.8125 1248.86 94.2529C1247.93 95.6812 1247.47 97.6343 1247.47 100.112C1247.47 102.578 1247.93 104.482 1248.84 105.825C1249.77 107.168 1251.17 107.839 1253.05 107.839ZM1276.12 89.5654C1277.83 89.5654 1279.3 89.9438 1280.52 90.7007C1281.74 91.4575 1282.67 92.5195 1283.32 93.8867C1283.97 95.2417 1284.29 96.8286 1284.29 98.6475V100.533H1270.43C1270.47 102.889 1271.05 104.684 1272.19 105.917C1273.32 107.15 1274.92 107.766 1276.98 107.766C1278.25 107.766 1279.38 107.65 1280.35 107.418C1281.33 107.186 1282.34 106.844 1283.39 106.393V109.066C1282.38 109.518 1281.37 109.847 1280.37 110.055C1279.38 110.262 1278.21 110.366 1276.86 110.366C1274.93 110.366 1273.24 109.976 1271.8 109.194C1270.37 108.401 1269.26 107.241 1268.47 105.715C1267.68 104.189 1267.28 102.322 1267.28 100.112C1267.28 97.9517 1267.64 96.084 1268.36 94.5093C1269.09 92.9224 1270.12 91.7017 1271.44 90.8472C1272.77 89.9927 1274.33 89.5654 1276.12 89.5654ZM1276.09 92.0557C1274.46 92.0557 1273.17 92.5867 1272.21 93.6487C1271.24 94.7107 1270.67 96.1938 1270.48 98.0981H1281.1C1281.09 96.9019 1280.9 95.8521 1280.54 94.9487C1280.18 94.0332 1279.64 93.3252 1278.91 92.8247C1278.18 92.312 1277.24 92.0557 1276.09 92.0557ZM1311.1 85.592C1309.62 85.592 1308.29 85.8484 1307.11 86.3611C1305.93 86.8616 1304.93 87.594 1304.1 88.5583C1303.28 89.5105 1302.66 90.6641 1302.22 92.019C1301.78 93.374 1301.56 94.8999 1301.56 96.5967C1301.56 98.8428 1301.91 100.796 1302.6 102.456C1303.31 104.104 1304.36 105.38 1305.75 106.283C1307.15 107.186 1308.91 107.638 1311.01 107.638C1312.2 107.638 1313.33 107.54 1314.38 107.345C1315.44 107.137 1316.47 106.881 1317.47 106.576V109.286C1316.49 109.652 1315.47 109.921 1314.39 110.092C1313.32 110.275 1312.04 110.366 1310.57 110.366C1307.84 110.366 1305.57 109.805 1303.74 108.682C1301.92 107.546 1300.55 105.947 1299.64 103.884C1298.73 101.821 1298.28 99.386 1298.28 96.5784C1298.28 94.552 1298.56 92.7026 1299.12 91.0303C1299.7 89.3457 1300.53 87.8931 1301.61 86.6724C1302.71 85.4517 1304.05 84.5117 1305.64 83.8525C1307.24 83.1812 1309.07 82.8455 1311.13 82.8455C1312.49 82.8455 1313.8 82.9797 1315.05 83.2483C1316.31 83.5168 1317.45 83.9014 1318.46 84.4019L1317.21 87.0386C1316.36 86.6479 1315.42 86.3123 1314.39 86.0315C1313.38 85.7385 1312.28 85.592 1311.1 85.592ZM1339.39 89.9316V110H1336.9L1336.46 107.18H1336.29C1335.88 107.876 1335.34 108.462 1334.68 108.938C1334.02 109.414 1333.28 109.768 1332.45 110C1331.63 110.244 1330.76 110.366 1329.83 110.366C1328.24 110.366 1326.91 110.11 1325.84 109.597C1324.76 109.084 1323.95 108.291 1323.4 107.217C1322.87 106.143 1322.6 104.763 1322.6 103.079V89.9316H1325.67V102.859C1325.67 104.531 1326.05 105.782 1326.81 106.613C1327.56 107.43 1328.72 107.839 1330.27 107.839C1331.76 107.839 1332.94 107.559 1333.82 106.997C1334.71 106.436 1335.35 105.612 1335.74 104.525C1336.13 103.427 1336.33 102.084 1336.33 100.497V89.9316H1339.39ZM1354.93 89.5654C1355.34 89.5654 1355.76 89.5898 1356.2 89.6387C1356.64 89.6753 1357.03 89.7302 1357.37 89.8035L1356.98 92.6233C1356.65 92.5378 1356.29 92.4707 1355.89 92.4219C1355.48 92.373 1355.1 92.3486 1354.75 92.3486C1353.94 92.3486 1353.18 92.5134 1352.46 92.843C1351.75 93.1604 1351.13 93.6243 1350.59 94.2346C1350.06 94.8328 1349.64 95.5591 1349.33 96.4136C1349.02 97.2559 1348.87 98.1958 1348.87 99.2334V110H1345.81V89.9316H1348.34L1348.67 93.6304H1348.8C1349.21 92.8857 1349.71 92.2083 1350.3 91.5979C1350.89 90.9753 1351.56 90.481 1352.33 90.1147C1353.11 89.7485 1353.98 89.5654 1354.93 89.5654ZM1374.14 104.507C1374.14 105.789 1373.82 106.869 1373.17 107.748C1372.54 108.615 1371.62 109.268 1370.42 109.707C1369.24 110.146 1367.82 110.366 1366.18 110.366C1364.77 110.366 1363.56 110.256 1362.53 110.037C1361.51 109.817 1360.61 109.506 1359.84 109.103V106.301C1360.66 106.704 1361.63 107.07 1362.77 107.4C1363.91 107.729 1365.06 107.894 1366.25 107.894C1367.98 107.894 1369.24 107.614 1370.02 107.052C1370.8 106.49 1371.19 105.728 1371.19 104.763C1371.19 104.214 1371.03 103.732 1370.72 103.317C1370.41 102.889 1369.89 102.48 1369.16 102.09C1368.43 101.687 1367.41 101.248 1366.12 100.771C1364.84 100.283 1363.73 99.801 1362.79 99.325C1361.86 98.8367 1361.14 98.2446 1360.63 97.5488C1360.13 96.853 1359.88 95.9497 1359.88 94.8389C1359.88 93.1421 1360.56 91.842 1361.93 90.9387C1363.31 90.0232 1365.11 89.5654 1367.35 89.5654C1368.56 89.5654 1369.69 89.6875 1370.73 89.9316C1371.8 90.1636 1372.79 90.481 1373.7 90.8838L1372.68 93.3191C1371.85 92.9651 1370.96 92.666 1370.02 92.4219C1369.08 92.1777 1368.12 92.0557 1367.15 92.0557C1365.74 92.0557 1364.66 92.2876 1363.91 92.7515C1363.16 93.2153 1362.79 93.8501 1362.79 94.6558C1362.79 95.2783 1362.96 95.791 1363.3 96.1938C1363.65 96.5967 1364.22 96.9751 1364.99 97.3291C1365.75 97.6831 1366.77 98.0981 1368.02 98.5742C1369.28 99.0381 1370.37 99.5203 1371.28 100.021C1372.2 100.509 1372.9 101.107 1373.39 101.815C1373.89 102.511 1374.14 103.408 1374.14 104.507ZM1396.33 99.9292C1396.33 101.577 1396.12 103.048 1395.69 104.342C1395.26 105.636 1394.65 106.729 1393.84 107.62C1393.04 108.511 1392.06 109.194 1390.91 109.67C1389.78 110.134 1388.49 110.366 1387.05 110.366C1385.71 110.366 1384.47 110.134 1383.35 109.67C1382.24 109.194 1381.28 108.511 1380.46 107.62C1379.65 106.729 1379.02 105.636 1378.57 104.342C1378.13 103.048 1377.91 101.577 1377.91 99.9292C1377.91 97.7319 1378.28 95.8643 1379.03 94.3262C1379.77 92.7759 1380.84 91.5979 1382.22 90.7922C1383.61 89.9744 1385.26 89.5654 1387.18 89.5654C1389.01 89.5654 1390.61 89.9744 1391.98 90.7922C1393.35 91.6101 1394.42 92.7942 1395.18 94.3445C1395.95 95.8826 1396.33 97.7441 1396.33 99.9292ZM1381.06 99.9292C1381.06 101.541 1381.28 102.938 1381.7 104.122C1382.13 105.306 1382.79 106.222 1383.68 106.869C1384.57 107.516 1385.72 107.839 1387.12 107.839C1388.51 107.839 1389.66 107.516 1390.55 106.869C1391.45 106.222 1392.12 105.306 1392.54 104.122C1392.97 102.938 1393.18 101.541 1393.18 99.9292C1393.18 98.3301 1392.97 96.9507 1392.54 95.791C1392.12 94.6191 1391.46 93.7158 1390.57 93.0811C1389.67 92.4463 1388.52 92.1289 1387.1 92.1289C1385.02 92.1289 1383.49 92.8186 1382.51 94.198C1381.54 95.5774 1381.06 97.4878 1381.06 99.9292ZM1414.57 104.507C1414.57 105.789 1414.25 106.869 1413.6 107.748C1412.97 108.615 1412.05 109.268 1410.85 109.707C1409.67 110.146 1408.25 110.366 1406.61 110.366C1405.2 110.366 1403.99 110.256 1402.96 110.037C1401.94 109.817 1401.04 109.506 1400.27 109.103V106.301C1401.09 106.704 1402.06 107.07 1403.2 107.4C1404.33 107.729 1405.49 107.894 1406.68 107.894C1408.41 107.894 1409.67 107.614 1410.45 107.052C1411.23 106.49 1411.62 105.728 1411.62 104.763C1411.62 104.214 1411.46 103.732 1411.15 103.317C1410.84 102.889 1410.32 102.48 1409.59 102.09C1408.86 101.687 1407.84 101.248 1406.55 100.771C1405.27 100.283 1404.16 99.801 1403.22 99.325C1402.29 98.8367 1401.57 98.2446 1401.06 97.5488C1400.56 96.853 1400.31 95.9497 1400.31 94.8389C1400.31 93.1421 1400.99 91.842 1402.36 90.9387C1403.74 90.0232 1405.54 89.5654 1407.78 89.5654C1408.99 89.5654 1410.11 89.6875 1411.16 89.9316C1412.23 90.1636 1413.22 90.481 1414.13 90.8838L1413.11 93.3191C1412.28 92.9651 1411.39 92.666 1410.45 92.4219C1409.51 92.1777 1408.55 92.0557 1407.58 92.0557C1406.17 92.0557 1405.09 92.2876 1404.33 92.7515C1403.59 93.2153 1403.22 93.8501 1403.22 94.6558C1403.22 95.2783 1403.39 95.791 1403.73 96.1938C1404.08 96.5967 1404.65 96.9751 1405.42 97.3291C1406.18 97.6831 1407.2 98.0981 1408.45 98.5742C1409.71 99.0381 1410.8 99.5203 1411.71 100.021C1412.63 100.509 1413.33 101.107 1413.82 101.815C1414.32 102.511 1414.57 103.408 1414.57 104.507ZM1444.76 102.877C1444.76 104.464 1444.37 105.819 1443.57 106.942C1442.79 108.053 1441.69 108.901 1440.28 109.487C1438.86 110.073 1437.2 110.366 1435.28 110.366C1434.27 110.366 1433.31 110.317 1432.4 110.22C1431.5 110.122 1430.67 109.982 1429.91 109.799C1429.16 109.615 1428.49 109.39 1427.92 109.121V106.136C1428.83 106.515 1429.95 106.869 1431.27 107.198C1432.59 107.516 1433.97 107.675 1435.41 107.675C1436.75 107.675 1437.89 107.498 1438.81 107.144C1439.74 106.777 1440.44 106.259 1440.92 105.587C1441.41 104.904 1441.65 104.086 1441.65 103.134C1441.65 102.218 1441.45 101.455 1441.05 100.845C1440.64 100.222 1439.97 99.6606 1439.03 99.1602C1438.11 98.6475 1436.84 98.1042 1435.22 97.5305C1434.09 97.1277 1433.09 96.6882 1432.22 96.2122C1431.36 95.7239 1430.63 95.1746 1430.04 94.5642C1429.46 93.9539 1429.01 93.2458 1428.71 92.4402C1428.41 91.6345 1428.27 90.7129 1428.27 89.6753C1428.27 88.2471 1428.63 87.0264 1429.35 86.0132C1430.08 84.9878 1431.09 84.2065 1432.37 83.6694C1433.66 83.1201 1435.15 82.8455 1436.82 82.8455C1438.25 82.8455 1439.56 82.9797 1440.77 83.2483C1441.99 83.5168 1443.11 83.877 1444.12 84.3286L1443.15 87.002C1442.19 86.5991 1441.16 86.2634 1440.08 85.9949C1439 85.7263 1437.89 85.592 1436.74 85.592C1435.6 85.592 1434.63 85.7629 1433.83 86.1047C1433.05 86.4343 1432.45 86.9043 1432.04 87.5146C1431.62 88.125 1431.42 88.8513 1431.42 89.6936C1431.42 90.6335 1431.61 91.4148 1432 92.0374C1432.4 92.6599 1433.04 93.2153 1433.91 93.7036C1434.79 94.1797 1435.94 94.6802 1437.39 95.2051C1438.96 95.7788 1440.3 96.3892 1441.4 97.0361C1442.49 97.6709 1443.33 98.4521 1443.9 99.3799C1444.48 100.295 1444.76 101.461 1444.76 102.877ZM1466.35 89.9316V110H1463.86L1463.42 107.18H1463.26C1462.84 107.876 1462.31 108.462 1461.65 108.938C1460.99 109.414 1460.24 109.768 1459.41 110C1458.6 110.244 1457.72 110.366 1456.79 110.366C1455.21 110.366 1453.88 110.11 1452.8 109.597C1451.73 109.084 1450.92 108.291 1450.37 107.217C1449.83 106.143 1449.56 104.763 1449.56 103.079V89.9316H1452.64V102.859C1452.64 104.531 1453.02 105.782 1453.77 106.613C1454.53 107.43 1455.68 107.839 1457.23 107.839C1458.72 107.839 1459.91 107.559 1460.79 106.997C1461.68 106.436 1462.32 105.612 1462.71 104.525C1463.1 103.427 1463.29 102.084 1463.29 100.497V89.9316H1466.35ZM1482.21 89.5654C1484.71 89.5654 1486.71 90.426 1488.2 92.1472C1489.69 93.8684 1490.43 96.4563 1490.43 99.9109C1490.43 102.194 1490.09 104.11 1489.41 105.66C1488.72 107.211 1487.76 108.383 1486.51 109.176C1485.28 109.969 1483.82 110.366 1482.14 110.366C1481.07 110.366 1480.14 110.226 1479.33 109.945C1478.53 109.664 1477.84 109.286 1477.27 108.81C1476.69 108.334 1476.22 107.815 1475.84 107.253H1475.62C1475.65 107.729 1475.7 108.303 1475.75 108.975C1475.81 109.646 1475.84 110.232 1475.84 110.732V118.972H1472.78V89.9316H1475.29L1475.69 92.8979H1475.84C1476.23 92.2876 1476.7 91.7322 1477.27 91.2317C1477.83 90.719 1478.51 90.3162 1479.32 90.0232C1480.13 89.718 1481.1 89.5654 1482.21 89.5654ZM1481.68 92.1289C1480.29 92.1289 1479.16 92.3975 1478.31 92.9346C1477.47 93.4717 1476.85 94.2773 1476.46 95.3516C1476.07 96.4136 1475.86 97.7502 1475.84 99.3616V99.9475C1475.84 101.644 1476.02 103.079 1476.39 104.25C1476.77 105.422 1477.38 106.313 1478.24 106.924C1479.1 107.534 1480.26 107.839 1481.72 107.839C1482.96 107.839 1484 107.504 1484.83 106.832C1485.66 106.161 1486.27 105.227 1486.68 104.031C1487.09 102.822 1487.3 101.437 1487.3 99.8743C1487.3 97.5061 1486.84 95.6262 1485.91 94.2346C1484.99 92.8308 1483.58 92.1289 1481.68 92.1289ZM1503.47 89.5654C1505.18 89.5654 1506.64 89.9438 1507.86 90.7007C1509.08 91.4575 1510.02 92.5195 1510.66 93.8867C1511.31 95.2417 1511.63 96.8286 1511.63 98.6475V100.533H1497.77C1497.81 102.889 1498.4 104.684 1499.53 105.917C1500.67 107.15 1502.27 107.766 1504.33 107.766C1505.6 107.766 1506.72 107.65 1507.7 107.418C1508.67 107.186 1509.69 106.844 1510.74 106.393V109.066C1509.72 109.518 1508.72 109.847 1507.72 110.055C1506.73 110.262 1505.56 110.366 1504.2 110.366C1502.27 110.366 1500.59 109.976 1499.15 109.194C1497.72 108.401 1496.61 107.241 1495.81 105.715C1495.02 104.189 1494.62 102.322 1494.62 100.112C1494.62 97.9517 1494.98 96.084 1495.7 94.5093C1496.44 92.9224 1497.46 91.7017 1498.78 90.8472C1500.11 89.9927 1501.67 89.5654 1503.47 89.5654ZM1503.43 92.0557C1501.81 92.0557 1500.51 92.5867 1499.55 93.6487C1498.59 94.7107 1498.01 96.1938 1497.83 98.0981H1508.45C1508.44 96.9019 1508.25 95.8521 1507.88 94.9487C1507.53 94.0332 1506.98 93.3252 1506.25 92.8247C1505.52 92.312 1504.58 92.0557 1503.43 92.0557ZM1525.92 89.5654C1526.32 89.5654 1526.74 89.5898 1527.18 89.6387C1527.62 89.6753 1528.01 89.7302 1528.35 89.8035L1527.97 92.6233C1527.64 92.5378 1527.27 92.4707 1526.87 92.4219C1526.47 92.373 1526.09 92.3486 1525.73 92.3486C1524.93 92.3486 1524.17 92.5134 1523.44 92.843C1522.74 93.1604 1522.11 93.6243 1521.58 94.2346C1521.04 94.8328 1520.62 95.5591 1520.31 96.4136C1520.01 97.2559 1519.86 98.1958 1519.86 99.2334V110H1516.8V89.9316H1519.33L1519.65 93.6304H1519.78C1520.2 92.8857 1520.7 92.2083 1521.28 91.5979C1521.87 90.9753 1522.55 90.481 1523.32 90.1147C1524.1 89.7485 1524.96 89.5654 1525.92 89.5654ZM1535.18 89.9316V110H1532.14V89.9316H1535.18ZM1533.7 82.4243C1534.2 82.4243 1534.63 82.5891 1534.98 82.9187C1535.35 83.2361 1535.53 83.7366 1535.53 84.4202C1535.53 85.0916 1535.35 85.592 1534.98 85.9216C1534.63 86.2512 1534.2 86.416 1533.7 86.416C1533.17 86.416 1532.73 86.2512 1532.38 85.9216C1532.04 85.592 1531.87 85.0916 1531.87 84.4202C1531.87 83.7366 1532.04 83.2361 1532.38 82.9187C1532.73 82.5891 1533.17 82.4243 1533.7 82.4243ZM1558.93 99.9292C1558.93 101.577 1558.72 103.048 1558.29 104.342C1557.86 105.636 1557.25 106.729 1556.44 107.62C1555.63 108.511 1554.66 109.194 1553.51 109.67C1552.38 110.134 1551.09 110.366 1549.65 110.366C1548.3 110.366 1547.07 110.134 1545.95 109.67C1544.84 109.194 1543.87 108.511 1543.06 107.62C1542.25 106.729 1541.62 105.636 1541.17 104.342C1540.73 103.048 1540.51 101.577 1540.51 99.9292C1540.51 97.7319 1540.88 95.8643 1541.63 94.3262C1542.37 92.7759 1543.43 91.5979 1544.81 90.7922C1546.2 89.9744 1547.86 89.5654 1549.78 89.5654C1551.61 89.5654 1553.21 89.9744 1554.57 90.7922C1555.95 91.6101 1557.02 92.7942 1557.78 94.3445C1558.55 95.8826 1558.93 97.7441 1558.93 99.9292ZM1543.66 99.9292C1543.66 101.541 1543.87 102.938 1544.3 104.122C1544.73 105.306 1545.39 106.222 1546.28 106.869C1547.17 107.516 1548.32 107.839 1549.72 107.839C1551.11 107.839 1552.25 107.516 1553.14 106.869C1554.05 106.222 1554.71 105.306 1555.14 104.122C1555.57 102.938 1555.78 101.541 1555.78 99.9292C1555.78 98.3301 1555.57 96.9507 1555.14 95.791C1554.71 94.6191 1554.05 93.7158 1553.16 93.0811C1552.27 92.4463 1551.12 92.1289 1549.7 92.1289C1547.61 92.1289 1546.08 92.8186 1545.11 94.198C1544.14 95.5774 1543.66 97.4878 1543.66 99.9292ZM1573.3 89.5654C1573.71 89.5654 1574.13 89.5898 1574.57 89.6387C1575.01 89.6753 1575.4 89.7302 1575.74 89.8035L1575.36 92.6233C1575.03 92.5378 1574.66 92.4707 1574.26 92.4219C1573.85 92.373 1573.48 92.3486 1573.12 92.3486C1572.32 92.3486 1571.55 92.5134 1570.83 92.843C1570.12 93.1604 1569.5 93.6243 1568.96 94.2346C1568.43 94.8328 1568.01 95.5591 1567.7 96.4136C1567.4 97.2559 1567.24 98.1958 1567.24 99.2334V110H1564.19V89.9316H1566.71L1567.04 93.6304H1567.17C1567.59 92.8857 1568.09 92.2083 1568.67 91.5979C1569.26 90.9753 1569.94 90.481 1570.7 90.1147C1571.49 89.7485 1572.35 89.5654 1573.3 89.5654ZM1587.26 89.5654C1588.97 89.5654 1590.43 89.9438 1591.65 90.7007C1592.87 91.4575 1593.81 92.5195 1594.45 93.8867C1595.1 95.2417 1595.42 96.8286 1595.42 98.6475V100.533H1581.56C1581.6 102.889 1582.19 104.684 1583.32 105.917C1584.46 107.15 1586.05 107.766 1588.12 107.766C1589.39 107.766 1590.51 107.65 1591.49 107.418C1592.46 107.186 1593.48 106.844 1594.53 106.393V109.066C1593.51 109.518 1592.51 109.847 1591.51 110.055C1590.52 110.262 1589.34 110.366 1587.99 110.366C1586.06 110.366 1584.38 109.976 1582.94 109.194C1581.51 108.401 1580.4 107.241 1579.6 105.715C1578.81 104.189 1578.41 102.322 1578.41 100.112C1578.41 97.9517 1578.77 96.084 1579.49 94.5093C1580.23 92.9224 1581.25 91.7017 1582.57 90.8472C1583.9 89.9927 1585.46 89.5654 1587.26 89.5654ZM1587.22 92.0557C1585.6 92.0557 1584.3 92.5867 1583.34 93.6487C1582.37 94.7107 1581.8 96.1938 1581.62 98.0981H1592.24C1592.23 96.9019 1592.04 95.8521 1591.67 94.9487C1591.32 94.0332 1590.77 93.3252 1590.04 92.8247C1589.31 92.312 1588.37 92.0557 1587.22 92.0557ZM1613.57 104.507C1613.57 105.789 1613.25 106.869 1612.6 107.748C1611.96 108.615 1611.05 109.268 1609.85 109.707C1608.67 110.146 1607.25 110.366 1605.6 110.366C1604.2 110.366 1602.99 110.256 1601.96 110.037C1600.94 109.817 1600.04 109.506 1599.27 109.103V106.301C1600.09 106.704 1601.06 107.07 1602.2 107.4C1603.33 107.729 1604.49 107.894 1605.68 107.894C1607.41 107.894 1608.67 107.614 1609.45 107.052C1610.23 106.49 1610.62 105.728 1610.62 104.763C1610.62 104.214 1610.46 103.732 1610.15 103.317C1609.84 102.889 1609.32 102.48 1608.59 102.09C1607.86 101.687 1606.84 101.248 1605.55 100.771C1604.27 100.283 1603.16 99.801 1602.22 99.325C1601.29 98.8367 1600.57 98.2446 1600.06 97.5488C1599.56 96.853 1599.31 95.9497 1599.31 94.8389C1599.31 93.1421 1599.99 91.842 1601.36 90.9387C1602.74 90.0232 1604.54 89.5654 1606.78 89.5654C1607.98 89.5654 1609.11 89.6875 1610.16 89.9316C1611.23 90.1636 1612.21 90.481 1613.13 90.8838L1612.1 93.3191C1611.27 92.9651 1610.39 92.666 1609.45 92.4219C1608.51 92.1777 1607.55 92.0557 1606.57 92.0557C1605.17 92.0557 1604.09 92.2876 1603.33 92.7515C1602.59 93.2153 1602.22 93.8501 1602.22 94.6558C1602.22 95.2783 1602.39 95.791 1602.73 96.1938C1603.08 96.5967 1603.65 96.9751 1604.41 97.3291C1605.18 97.6831 1606.2 98.0981 1607.45 98.5742C1608.71 99.0381 1609.8 99.5203 1610.71 100.021C1611.63 100.509 1612.33 101.107 1612.82 101.815C1613.32 102.511 1613.57 103.408 1613.57 104.507ZM1635.34 110.366C1632.8 110.366 1630.79 109.5 1629.3 107.766C1627.82 106.033 1627.08 103.457 1627.08 100.039C1627.08 96.5845 1627.84 93.9783 1629.35 92.2205C1630.87 90.4504 1632.88 89.5654 1635.4 89.5654C1636.46 89.5654 1637.39 89.7058 1638.18 89.9866C1638.97 90.2673 1639.66 90.6458 1640.23 91.1218C1640.8 91.5857 1641.29 92.1167 1641.68 92.7148H1641.9C1641.85 92.3364 1641.8 91.8176 1641.75 91.1584C1641.7 90.4993 1641.68 89.9622 1641.68 89.5471V81.5088H1644.72V110H1642.26L1641.8 107.144H1641.68C1641.3 107.742 1640.82 108.285 1640.23 108.773C1639.66 109.261 1638.97 109.652 1638.16 109.945C1637.37 110.226 1636.43 110.366 1635.34 110.366ZM1635.82 107.839C1637.97 107.839 1639.48 107.229 1640.38 106.008C1641.27 104.788 1641.71 102.975 1641.71 100.57V100.021C1641.71 97.4695 1641.29 95.5103 1640.43 94.1431C1639.59 92.7759 1638.05 92.0923 1635.82 92.0923C1633.95 92.0923 1632.55 92.8125 1631.62 94.2529C1630.7 95.6812 1630.23 97.6343 1630.23 100.112C1630.23 102.578 1630.69 104.482 1631.61 105.825C1632.53 107.168 1633.94 107.839 1635.82 107.839ZM1668.46 99.9292C1668.46 101.577 1668.25 103.048 1667.82 104.342C1667.4 105.636 1666.78 106.729 1665.97 107.62C1665.17 108.511 1664.19 109.194 1663.04 109.67C1661.91 110.134 1660.62 110.366 1659.18 110.366C1657.84 110.366 1656.61 110.134 1655.48 109.67C1654.37 109.194 1653.41 108.511 1652.59 107.62C1651.78 106.729 1651.15 105.636 1650.7 104.342C1650.26 103.048 1650.04 101.577 1650.04 99.9292C1650.04 97.7319 1650.42 95.8643 1651.16 94.3262C1651.91 92.7759 1652.97 91.5979 1654.35 90.7922C1655.74 89.9744 1657.39 89.5654 1659.31 89.5654C1661.14 89.5654 1662.74 89.9744 1664.11 90.7922C1665.49 91.6101 1666.55 92.7942 1667.31 94.3445C1668.08 95.8826 1668.46 97.7441 1668.46 99.9292ZM1653.19 99.9292C1653.19 101.541 1653.41 102.938 1653.83 104.122C1654.26 105.306 1654.92 106.222 1655.81 106.869C1656.7 107.516 1657.85 107.839 1659.25 107.839C1660.65 107.839 1661.79 107.516 1662.68 106.869C1663.58 106.222 1664.25 105.306 1664.67 104.122C1665.1 102.938 1665.32 101.541 1665.32 99.9292C1665.32 98.3301 1665.1 96.9507 1664.67 95.791C1664.25 94.6191 1663.59 93.7158 1662.7 93.0811C1661.81 92.4463 1660.65 92.1289 1659.24 92.1289C1657.15 92.1289 1655.62 92.8186 1654.64 94.198C1653.68 95.5774 1653.19 97.4878 1653.19 99.9292ZM1683.92 110V83.23H1687.03V110H1683.92ZM1697.5 110H1694.39V83.23H1709.3V85.9766H1697.5V95.791H1708.58V98.5193H1697.5V110ZM1720.76 83.23C1724.21 83.23 1726.73 83.9075 1728.32 85.2625C1729.92 86.6052 1730.72 88.5339 1730.72 91.0486C1730.72 92.1838 1730.53 93.2642 1730.15 94.2896C1729.79 95.3027 1729.19 96.2 1728.36 96.9812C1727.53 97.7502 1726.44 98.3606 1725.08 98.8123C1723.74 99.2517 1722.09 99.4714 1720.14 99.4714H1716.88V110H1713.76V83.23H1720.76ZM1720.47 85.885H1716.88V96.7981H1719.79C1721.5 96.7981 1722.92 96.615 1724.06 96.2488C1725.2 95.8826 1726.06 95.2905 1726.64 94.4727C1727.21 93.6426 1727.5 92.5439 1727.5 91.1768C1727.5 89.3945 1726.93 88.0701 1725.79 87.2034C1724.66 86.3245 1722.88 85.885 1720.47 85.885ZM1751.23 110H1736.32V83.23H1751.23V85.9766H1739.44V94.6375H1750.55V97.3474H1739.44V107.253H1751.23V110Z" fill="black"/>
</svg>
